<mxfile host="app.diagrams.net" modified="2024-06-01T14:14:11.233Z" agent="Mozilla/5.0 (Windows NT 10.0; Win64; x64) AppleWebKit/537.36 (KHTML, like Gecko) Chrome/125.0.0.0 Safari/537.36" etag="g8IQJz1oSe7TsU3Z-YZJ" version="24.4.8" type="device" pages="8">
  <diagram name="Страница — 1" id="JbEDEsM_lz8nhRMGkAfQ">
    <mxGraphModel dx="1562" dy="853" grid="1" gridSize="10" guides="1" tooltips="1" connect="1" arrows="1" fold="1" page="1" pageScale="1" pageWidth="827" pageHeight="1169" math="0" shadow="0">
      <root>
        <mxCell id="0" />
        <mxCell id="1" parent="0" />
        <mxCell id="wBaNQLFz6f1fFsWecP1D-1" value="Многокадровый метод повышения разрешающей способности изображения посредством сверточной нейронной сети" style="whiteSpace=wrap;html=1;aspect=fixed;" parent="1" vertex="1">
          <mxGeometry x="240" y="180" width="160" height="160" as="geometry" />
        </mxCell>
        <mxCell id="wBaNQLFz6f1fFsWecP1D-2" value="" style="endArrow=classic;html=1;rounded=0;entryX=0;entryY=0.25;entryDx=0;entryDy=0;" parent="1" target="wBaNQLFz6f1fFsWecP1D-1" edge="1">
          <mxGeometry width="50" height="50" relative="1" as="geometry">
            <mxPoint x="90" y="220" as="sourcePoint" />
            <mxPoint x="440" y="220" as="targetPoint" />
          </mxGeometry>
        </mxCell>
        <mxCell id="wBaNQLFz6f1fFsWecP1D-3" value="Изображение низкого разрешения" style="text;html=1;align=center;verticalAlign=middle;whiteSpace=wrap;rounded=0;" parent="1" vertex="1">
          <mxGeometry x="120" y="180" width="90" height="40" as="geometry" />
        </mxCell>
        <mxCell id="wBaNQLFz6f1fFsWecP1D-4" value="" style="endArrow=classic;html=1;rounded=0;entryX=0;entryY=0.75;entryDx=0;entryDy=0;" parent="1" target="wBaNQLFz6f1fFsWecP1D-1" edge="1">
          <mxGeometry width="50" height="50" relative="1" as="geometry">
            <mxPoint x="90" y="300" as="sourcePoint" />
            <mxPoint x="440" y="220" as="targetPoint" />
          </mxGeometry>
        </mxCell>
        <mxCell id="wBaNQLFz6f1fFsWecP1D-6" value="Изображение низкого разрешения" style="text;html=1;align=center;verticalAlign=middle;whiteSpace=wrap;rounded=0;" parent="1" vertex="1">
          <mxGeometry x="120" y="260" width="90" height="40" as="geometry" />
        </mxCell>
        <mxCell id="wBaNQLFz6f1fFsWecP1D-7" value="" style="endArrow=classic;html=1;rounded=0;exitX=1;exitY=0.5;exitDx=0;exitDy=0;" parent="1" source="wBaNQLFz6f1fFsWecP1D-1" edge="1">
          <mxGeometry width="50" height="50" relative="1" as="geometry">
            <mxPoint x="390" y="270" as="sourcePoint" />
            <mxPoint x="550" y="260" as="targetPoint" />
          </mxGeometry>
        </mxCell>
        <mxCell id="wBaNQLFz6f1fFsWecP1D-9" value="Изображение высокого разрешения" style="text;html=1;align=center;verticalAlign=middle;whiteSpace=wrap;rounded=0;" parent="1" vertex="1">
          <mxGeometry x="430" y="220" width="90" height="40" as="geometry" />
        </mxCell>
        <mxCell id="wBaNQLFz6f1fFsWecP1D-11" value="Набор для обучения" style="text;html=1;align=center;verticalAlign=middle;whiteSpace=wrap;rounded=0;" parent="1" vertex="1">
          <mxGeometry x="310" y="370" width="90" height="40" as="geometry" />
        </mxCell>
        <mxCell id="wBaNQLFz6f1fFsWecP1D-13" value="" style="endArrow=classic;html=1;rounded=0;entryX=0.5;entryY=1;entryDx=0;entryDy=0;" parent="1" target="wBaNQLFz6f1fFsWecP1D-1" edge="1">
          <mxGeometry width="50" height="50" relative="1" as="geometry">
            <mxPoint x="320" y="440" as="sourcePoint" />
            <mxPoint x="440" y="220" as="targetPoint" />
          </mxGeometry>
        </mxCell>
        <mxCell id="wBaNQLFz6f1fFsWecP1D-14" value="A0" style="text;html=1;align=center;verticalAlign=middle;whiteSpace=wrap;rounded=0;" parent="1" vertex="1">
          <mxGeometry x="354" y="310" width="60" height="30" as="geometry" />
        </mxCell>
        <mxCell id="k2PcYPKPulUYU1QNR8js-1" value="" style="endArrow=classic;html=1;rounded=0;entryX=0.5;entryY=0;entryDx=0;entryDy=0;" parent="1" target="wBaNQLFz6f1fFsWecP1D-1" edge="1">
          <mxGeometry width="50" height="50" relative="1" as="geometry">
            <mxPoint x="320" y="80" as="sourcePoint" />
            <mxPoint x="440" y="220" as="targetPoint" />
          </mxGeometry>
        </mxCell>
        <mxCell id="k2PcYPKPulUYU1QNR8js-2" value="Модель нейронной&lt;br&gt;&amp;nbsp;сети" style="text;html=1;align=center;verticalAlign=middle;whiteSpace=wrap;rounded=0;" parent="1" vertex="1">
          <mxGeometry x="310" y="120" width="90" height="40" as="geometry" />
        </mxCell>
      </root>
    </mxGraphModel>
  </diagram>
  <diagram id="Wc2Y64d3mPMD6Nxqdqi5" name="Страница — 2">
    <mxGraphModel dx="880" dy="468" grid="1" gridSize="10" guides="1" tooltips="1" connect="1" arrows="1" fold="1" page="1" pageScale="1" pageWidth="827" pageHeight="1169" math="0" shadow="0">
      <root>
        <mxCell id="0" />
        <mxCell id="1" parent="0" />
        <mxCell id="QDXN5bbw2UuXWW-XVitq-9" style="edgeStyle=orthogonalEdgeStyle;rounded=0;orthogonalLoop=1;jettySize=auto;html=1;exitX=1;exitY=0.5;exitDx=0;exitDy=0;entryX=0;entryY=0.5;entryDx=0;entryDy=0;" parent="1" source="QHsmIHxkXxQxWvauLcvn-1" target="QDXN5bbw2UuXWW-XVitq-8" edge="1">
          <mxGeometry relative="1" as="geometry">
            <Array as="points">
              <mxPoint x="310" y="190" />
              <mxPoint x="310" y="230" />
            </Array>
          </mxGeometry>
        </mxCell>
        <mxCell id="QHsmIHxkXxQxWvauLcvn-1" value="Подготовка тренировочных и валидационных&lt;br&gt;данных" style="rounded=0;whiteSpace=wrap;html=1;" parent="1" vertex="1">
          <mxGeometry x="160" y="160" width="120" height="60" as="geometry" />
        </mxCell>
        <mxCell id="QHsmIHxkXxQxWvauLcvn-3" value="Набор тренировочных изображений высокого разрешения" style="text;html=1;align=center;verticalAlign=middle;whiteSpace=wrap;rounded=0;" parent="1" vertex="1">
          <mxGeometry x="30" y="140" width="130" height="30" as="geometry" />
        </mxCell>
        <mxCell id="QDXN5bbw2UuXWW-XVitq-1" value="" style="endArrow=classic;html=1;rounded=0;entryX=0.25;entryY=1;entryDx=0;entryDy=0;" parent="1" target="QHsmIHxkXxQxWvauLcvn-1" edge="1">
          <mxGeometry width="50" height="50" relative="1" as="geometry">
            <mxPoint x="190" y="310" as="sourcePoint" />
            <mxPoint x="440" y="220" as="targetPoint" />
          </mxGeometry>
        </mxCell>
        <mxCell id="QDXN5bbw2UuXWW-XVitq-2" value="Функции понижения качества&amp;nbsp;" style="text;html=1;align=center;verticalAlign=middle;whiteSpace=wrap;rounded=0;" parent="1" vertex="1">
          <mxGeometry x="110" y="270" width="80" height="30" as="geometry" />
        </mxCell>
        <mxCell id="QDXN5bbw2UuXWW-XVitq-3" value="" style="endArrow=classic;html=1;rounded=0;entryX=0.75;entryY=1;entryDx=0;entryDy=0;" parent="1" target="QHsmIHxkXxQxWvauLcvn-1" edge="1">
          <mxGeometry width="50" height="50" relative="1" as="geometry">
            <mxPoint x="250" y="310" as="sourcePoint" />
            <mxPoint x="440" y="220" as="targetPoint" />
          </mxGeometry>
        </mxCell>
        <mxCell id="QDXN5bbw2UuXWW-XVitq-4" value="" style="endArrow=classic;html=1;rounded=0;entryX=0.5;entryY=0;entryDx=0;entryDy=0;" parent="1" target="QHsmIHxkXxQxWvauLcvn-1" edge="1">
          <mxGeometry width="50" height="50" relative="1" as="geometry">
            <mxPoint x="220" y="90" as="sourcePoint" />
            <mxPoint x="440" y="220" as="targetPoint" />
          </mxGeometry>
        </mxCell>
        <mxCell id="QDXN5bbw2UuXWW-XVitq-5" value="Правило перевода в цветовую модель&amp;nbsp;YCbCr" style="text;html=1;align=center;verticalAlign=middle;whiteSpace=wrap;rounded=0;" parent="1" vertex="1">
          <mxGeometry x="220" y="110" width="90" height="30" as="geometry" />
        </mxCell>
        <mxCell id="QDXN5bbw2UuXWW-XVitq-6" value="Функция понижения разрешения" style="text;html=1;align=center;verticalAlign=middle;whiteSpace=wrap;rounded=0;" parent="1" vertex="1">
          <mxGeometry x="250" y="270" width="80" height="30" as="geometry" />
        </mxCell>
        <mxCell id="QDXN5bbw2UuXWW-XVitq-21" style="edgeStyle=orthogonalEdgeStyle;rounded=0;orthogonalLoop=1;jettySize=auto;html=1;exitX=1;exitY=0.5;exitDx=0;exitDy=0;entryX=0;entryY=0.5;entryDx=0;entryDy=0;" parent="1" source="QDXN5bbw2UuXWW-XVitq-8" target="QDXN5bbw2UuXWW-XVitq-13" edge="1">
          <mxGeometry relative="1" as="geometry">
            <Array as="points">
              <mxPoint x="570" y="230" />
              <mxPoint x="570" y="270" />
            </Array>
          </mxGeometry>
        </mxCell>
        <mxCell id="QDXN5bbw2UuXWW-XVitq-8" value="Выделение меньших участков изображений" style="rounded=0;whiteSpace=wrap;html=1;" parent="1" vertex="1">
          <mxGeometry x="440" y="200" width="120" height="60" as="geometry" />
        </mxCell>
        <mxCell id="QDXN5bbw2UuXWW-XVitq-10" value="По два набора LR и один HR для каждого типа данных" style="text;html=1;align=center;verticalAlign=middle;whiteSpace=wrap;rounded=0;" parent="1" vertex="1">
          <mxGeometry x="310" y="193" width="130" height="30" as="geometry" />
        </mxCell>
        <mxCell id="QDXN5bbw2UuXWW-XVitq-34" style="edgeStyle=orthogonalEdgeStyle;rounded=0;orthogonalLoop=1;jettySize=auto;html=1;exitX=1;exitY=0.25;exitDx=0;exitDy=0;" parent="1" source="QDXN5bbw2UuXWW-XVitq-13" edge="1">
          <mxGeometry relative="1" as="geometry">
            <mxPoint x="930" y="255" as="targetPoint" />
          </mxGeometry>
        </mxCell>
        <mxCell id="QDXN5bbw2UuXWW-XVitq-38" style="edgeStyle=orthogonalEdgeStyle;rounded=0;orthogonalLoop=1;jettySize=auto;html=1;exitX=1;exitY=0.5;exitDx=0;exitDy=0;" parent="1" source="QDXN5bbw2UuXWW-XVitq-13" edge="1">
          <mxGeometry relative="1" as="geometry">
            <mxPoint x="930" y="270" as="targetPoint" />
          </mxGeometry>
        </mxCell>
        <mxCell id="QDXN5bbw2UuXWW-XVitq-13" value="Обучение нейронной сети" style="rounded=0;whiteSpace=wrap;html=1;" parent="1" vertex="1">
          <mxGeometry x="717" y="240" width="120" height="60" as="geometry" />
        </mxCell>
        <mxCell id="QDXN5bbw2UuXWW-XVitq-17" value="LR наборы, размер - a*a&lt;div&gt;HR наборы, размер вычисляется по формуле&amp;nbsp;&lt;/div&gt;" style="text;html=1;align=center;verticalAlign=middle;whiteSpace=wrap;rounded=0;" parent="1" vertex="1">
          <mxGeometry x="570" y="230" width="148" height="30" as="geometry" />
        </mxCell>
        <mxCell id="QDXN5bbw2UuXWW-XVitq-18" value="" style="endArrow=classic;html=1;rounded=0;entryX=0;entryY=0.75;entryDx=0;entryDy=0;" parent="1" target="QDXN5bbw2UuXWW-XVitq-8" edge="1">
          <mxGeometry width="50" height="50" relative="1" as="geometry">
            <mxPoint x="340" y="245" as="sourcePoint" />
            <mxPoint x="471" y="260" as="targetPoint" />
          </mxGeometry>
        </mxCell>
        <mxCell id="QDXN5bbw2UuXWW-XVitq-19" value="Размер участка&lt;div&gt;(a)&lt;/div&gt;" style="text;html=1;align=center;verticalAlign=middle;whiteSpace=wrap;rounded=0;" parent="1" vertex="1">
          <mxGeometry x="341" y="245" width="100" height="30" as="geometry" />
        </mxCell>
        <mxCell id="QDXN5bbw2UuXWW-XVitq-22" value="" style="endArrow=classic;html=1;rounded=0;entryX=0.5;entryY=0;entryDx=0;entryDy=0;" parent="1" target="QDXN5bbw2UuXWW-XVitq-13" edge="1">
          <mxGeometry width="50" height="50" relative="1" as="geometry">
            <mxPoint x="777" y="170" as="sourcePoint" />
            <mxPoint x="557" y="220" as="targetPoint" />
          </mxGeometry>
        </mxCell>
        <mxCell id="QDXN5bbw2UuXWW-XVitq-23" value="Архитектура нейронной сети" style="text;html=1;align=center;verticalAlign=middle;whiteSpace=wrap;rounded=0;" parent="1" vertex="1">
          <mxGeometry x="777" y="190" width="80" height="30" as="geometry" />
        </mxCell>
        <mxCell id="QDXN5bbw2UuXWW-XVitq-25" value="Алгоритм обучения нейронной сети" style="text;html=1;align=center;verticalAlign=middle;whiteSpace=wrap;rounded=0;" parent="1" vertex="1">
          <mxGeometry x="647" y="340" width="96" height="30" as="geometry" />
        </mxCell>
        <mxCell id="QDXN5bbw2UuXWW-XVitq-27" value="" style="endArrow=classic;html=1;rounded=0;entryX=0.25;entryY=1;entryDx=0;entryDy=0;" parent="1" target="QDXN5bbw2UuXWW-XVitq-13" edge="1">
          <mxGeometry width="50" height="50" relative="1" as="geometry">
            <mxPoint x="747" y="380" as="sourcePoint" />
            <mxPoint x="557" y="220" as="targetPoint" />
          </mxGeometry>
        </mxCell>
        <mxCell id="QDXN5bbw2UuXWW-XVitq-29" value="Функции расчета MSE и PSNR" style="text;html=1;align=center;verticalAlign=middle;whiteSpace=wrap;rounded=0;" parent="1" vertex="1">
          <mxGeometry x="777" y="340" width="100" height="30" as="geometry" />
        </mxCell>
        <mxCell id="QDXN5bbw2UuXWW-XVitq-32" value="" style="endArrow=classic;html=1;rounded=0;entryX=0.5;entryY=1;entryDx=0;entryDy=0;" parent="1" target="QDXN5bbw2UuXWW-XVitq-13" edge="1">
          <mxGeometry width="50" height="50" relative="1" as="geometry">
            <mxPoint x="777" y="380" as="sourcePoint" />
            <mxPoint x="557" y="220" as="targetPoint" />
          </mxGeometry>
        </mxCell>
        <mxCell id="QDXN5bbw2UuXWW-XVitq-35" value="Обученная нейронная сеть" style="text;html=1;align=center;verticalAlign=middle;whiteSpace=wrap;rounded=0;" parent="1" vertex="1">
          <mxGeometry x="836" y="223" width="98" height="30" as="geometry" />
        </mxCell>
        <mxCell id="QDXN5bbw2UuXWW-XVitq-37" value="Ошибка предсказания &lt;br&gt;MSE и PSNR" style="text;html=1;align=center;verticalAlign=middle;whiteSpace=wrap;rounded=0;" parent="1" vertex="1">
          <mxGeometry x="826" y="277" width="108" height="30" as="geometry" />
        </mxCell>
        <mxCell id="QDXN5bbw2UuXWW-XVitq-39" value="" style="endArrow=classic;html=1;rounded=0;entryX=0;entryY=0.25;entryDx=0;entryDy=0;" parent="1" target="QHsmIHxkXxQxWvauLcvn-1" edge="1">
          <mxGeometry width="50" height="50" relative="1" as="geometry">
            <mxPoint x="20" y="175" as="sourcePoint" />
            <mxPoint x="390" y="220" as="targetPoint" />
          </mxGeometry>
        </mxCell>
        <mxCell id="QDXN5bbw2UuXWW-XVitq-40" value="" style="endArrow=classic;html=1;rounded=0;entryX=0;entryY=0.75;entryDx=0;entryDy=0;" parent="1" target="QHsmIHxkXxQxWvauLcvn-1" edge="1">
          <mxGeometry width="50" height="50" relative="1" as="geometry">
            <mxPoint x="20" y="205" as="sourcePoint" />
            <mxPoint x="390" y="220" as="targetPoint" />
          </mxGeometry>
        </mxCell>
        <mxCell id="QDXN5bbw2UuXWW-XVitq-41" value="Набор валидационных изображений высокого разрешения" style="text;html=1;align=center;verticalAlign=middle;whiteSpace=wrap;rounded=0;" parent="1" vertex="1">
          <mxGeometry x="20" y="215" width="130" height="30" as="geometry" />
        </mxCell>
        <mxCell id="QDXN5bbw2UuXWW-XVitq-42" value="А1" style="text;html=1;align=center;verticalAlign=middle;whiteSpace=wrap;rounded=0;" parent="1" vertex="1">
          <mxGeometry x="250" y="203" width="36" height="20" as="geometry" />
        </mxCell>
        <mxCell id="QDXN5bbw2UuXWW-XVitq-43" value="А2" style="text;html=1;align=center;verticalAlign=middle;whiteSpace=wrap;rounded=0;" parent="1" vertex="1">
          <mxGeometry x="530" y="243" width="36" height="20" as="geometry" />
        </mxCell>
        <mxCell id="QDXN5bbw2UuXWW-XVitq-44" value="А3" style="text;html=1;align=center;verticalAlign=middle;whiteSpace=wrap;rounded=0;" parent="1" vertex="1">
          <mxGeometry x="805" y="283" width="36" height="20" as="geometry" />
        </mxCell>
      </root>
    </mxGraphModel>
  </diagram>
  <diagram id="lWc6gZmfC5kvDhMqNkjv" name="Страница — 3">
    <mxGraphModel dx="880" dy="468" grid="1" gridSize="10" guides="1" tooltips="1" connect="1" arrows="1" fold="1" page="1" pageScale="1" pageWidth="827" pageHeight="1169" math="0" shadow="0">
      <root>
        <mxCell id="0" />
        <mxCell id="1" parent="0" />
        <mxCell id="CwTcNwNbZUkhdJTC-bWR-5" value="" style="endArrow=none;html=1;rounded=0;fontFamily=Helvetica;fontSize=12;fontColor=default;entryX=0.5;entryY=1;entryDx=0;entryDy=0;entryPerimeter=0;" parent="1" source="ni8qnnBMQO_-zbNU_C3W-12" target="1h0F7ipTN5orxr4tTN2a-1" edge="1">
          <mxGeometry width="50" height="50" relative="1" as="geometry">
            <mxPoint x="270" y="290" as="sourcePoint" />
            <mxPoint x="320" y="240" as="targetPoint" />
          </mxGeometry>
        </mxCell>
        <mxCell id="1h0F7ipTN5orxr4tTN2a-1" value="Начало" style="strokeWidth=1;html=1;shape=mxgraph.flowchart.terminator;whiteSpace=wrap;fontSize=14;" parent="1" vertex="1">
          <mxGeometry x="160" y="70" width="140" height="60" as="geometry" />
        </mxCell>
        <mxCell id="ni8qnnBMQO_-zbNU_C3W-2" style="edgeStyle=orthogonalEdgeStyle;rounded=0;orthogonalLoop=1;jettySize=auto;html=1;exitX=0;exitY=0.5;exitDx=0;exitDy=0;exitPerimeter=0;entryX=1;entryY=0.5;entryDx=0;entryDy=0;entryPerimeter=0;endArrow=none;endFill=0;dashed=1;" parent="1" source="ni8qnnBMQO_-zbNU_C3W-3" target="1h0F7ipTN5orxr4tTN2a-1" edge="1">
          <mxGeometry relative="1" as="geometry">
            <mxPoint x="310" y="100" as="sourcePoint" />
          </mxGeometry>
        </mxCell>
        <mxCell id="ni8qnnBMQO_-zbNU_C3W-3" value="Входные параметры:&lt;div style=&quot;font-size: 13px;&quot;&gt;path - путь к&amp;nbsp;набору &lt;br style=&quot;font-size: 13px;&quot;&gt;&amp;nbsp; &amp;nbsp; &amp;nbsp; &amp;nbsp; &amp;nbsp; HR данных&amp;nbsp;&lt;/div&gt;" style="strokeWidth=1;html=1;shape=mxgraph.flowchart.annotation_1;align=left;pointerEvents=1;fontSize=13;" parent="1" vertex="1">
          <mxGeometry x="340" y="65" width="70" height="70" as="geometry" />
        </mxCell>
        <mxCell id="ni8qnnBMQO_-zbNU_C3W-16" style="edgeStyle=orthogonalEdgeStyle;rounded=0;orthogonalLoop=1;jettySize=auto;html=1;exitX=0.5;exitY=1;exitDx=0;exitDy=0;entryX=0.5;entryY=0;entryDx=0;entryDy=0;endArrow=none;endFill=0;" parent="1" source="ni8qnnBMQO_-zbNU_C3W-12" target="ni8qnnBMQO_-zbNU_C3W-15" edge="1">
          <mxGeometry relative="1" as="geometry" />
        </mxCell>
        <mxCell id="ni8qnnBMQO_-zbNU_C3W-12" value="Получение 2-x LR наборов гауссовским блюром и шумом" style="rounded=0;whiteSpace=wrap;html=1;fontSize=14;" parent="1" vertex="1">
          <mxGeometry x="160" y="230" width="140" height="60" as="geometry" />
        </mxCell>
        <mxCell id="ni8qnnBMQO_-zbNU_C3W-18" style="edgeStyle=orthogonalEdgeStyle;rounded=0;orthogonalLoop=1;jettySize=auto;html=1;exitX=0.5;exitY=1;exitDx=0;exitDy=0;endArrow=none;endFill=0;" parent="1" source="ni8qnnBMQO_-zbNU_C3W-15" target="ni8qnnBMQO_-zbNU_C3W-17" edge="1">
          <mxGeometry relative="1" as="geometry" />
        </mxCell>
        <mxCell id="ni8qnnBMQO_-zbNU_C3W-15" value="Понижение разрешения LR наборов" style="rounded=0;whiteSpace=wrap;html=1;fontSize=14;" parent="1" vertex="1">
          <mxGeometry x="160" y="310" width="140" height="60" as="geometry" />
        </mxCell>
        <mxCell id="ni8qnnBMQO_-zbNU_C3W-21" style="edgeStyle=orthogonalEdgeStyle;rounded=0;orthogonalLoop=1;jettySize=auto;html=1;exitX=0.5;exitY=1;exitDx=0;exitDy=0;endArrow=none;endFill=0;" parent="1" source="ni8qnnBMQO_-zbNU_C3W-17" target="ni8qnnBMQO_-zbNU_C3W-20" edge="1">
          <mxGeometry relative="1" as="geometry" />
        </mxCell>
        <mxCell id="ni8qnnBMQO_-zbNU_C3W-17" value="Бикубическое повышение разрешения&lt;div style=&quot;font-size: 13px;&quot;&gt;LR наборов&lt;/div&gt;" style="rounded=0;whiteSpace=wrap;html=1;fontSize=13;" parent="1" vertex="1">
          <mxGeometry x="160" y="390" width="140" height="60" as="geometry" />
        </mxCell>
        <mxCell id="ni8qnnBMQO_-zbNU_C3W-23" style="edgeStyle=orthogonalEdgeStyle;rounded=0;orthogonalLoop=1;jettySize=auto;html=1;exitX=0.5;exitY=1;exitDx=0;exitDy=0;endArrow=none;endFill=0;" parent="1" source="ni8qnnBMQO_-zbNU_C3W-20" target="ni8qnnBMQO_-zbNU_C3W-22" edge="1">
          <mxGeometry relative="1" as="geometry" />
        </mxCell>
        <mxCell id="ni8qnnBMQO_-zbNU_C3W-20" value="Перевод LR и HR наборов из RGB в YCbCr" style="rounded=0;whiteSpace=wrap;html=1;fontSize=14;" parent="1" vertex="1">
          <mxGeometry x="160" y="470" width="140" height="60" as="geometry" />
        </mxCell>
        <mxCell id="ni8qnnBMQO_-zbNU_C3W-22" value="Нормализация LR и HR наборов" style="rounded=0;whiteSpace=wrap;html=1;fontSize=14;" parent="1" vertex="1">
          <mxGeometry x="160" y="551" width="140" height="60" as="geometry" />
        </mxCell>
        <mxCell id="-GhOYJGmNXgtv2KOGRoh-1" value="Конец" style="strokeWidth=1;html=1;shape=mxgraph.flowchart.terminator;whiteSpace=wrap;fontSize=14;" parent="1" vertex="1">
          <mxGeometry x="160" y="630" width="140" height="60" as="geometry" />
        </mxCell>
        <mxCell id="-GhOYJGmNXgtv2KOGRoh-2" style="edgeStyle=orthogonalEdgeStyle;rounded=0;orthogonalLoop=1;jettySize=auto;html=1;exitX=0.5;exitY=1;exitDx=0;exitDy=0;entryX=0.5;entryY=0;entryDx=0;entryDy=0;entryPerimeter=0;endArrow=none;endFill=0;" parent="1" source="ni8qnnBMQO_-zbNU_C3W-22" target="-GhOYJGmNXgtv2KOGRoh-1" edge="1">
          <mxGeometry relative="1" as="geometry" />
        </mxCell>
        <mxCell id="v_DdDTGr_phzAw2SP-nb-1" value="&amp;nbsp;Данный этап не является &lt;br style=&quot;font-size: 13px;&quot;&gt;подготовкой данных, а &lt;br style=&quot;font-size: 13px;&quot;&gt;относится к самому методу, &lt;br style=&quot;font-size: 13px;&quot;&gt;но вынесен в эту часть&lt;br&gt;&amp;nbsp;для удобства&amp;nbsp;&amp;nbsp;" style="strokeWidth=1;html=1;shape=mxgraph.flowchart.annotation_1;align=left;pointerEvents=1;fontSize=13;" parent="1" vertex="1">
          <mxGeometry x="340" y="377.5" width="70" height="85" as="geometry" />
        </mxCell>
        <mxCell id="v_DdDTGr_phzAw2SP-nb-3" style="edgeStyle=orthogonalEdgeStyle;rounded=0;orthogonalLoop=1;jettySize=auto;html=1;entryX=1;entryY=0.5;entryDx=0;entryDy=0;endArrow=none;endFill=0;dashed=1;" parent="1" source="v_DdDTGr_phzAw2SP-nb-1" target="ni8qnnBMQO_-zbNU_C3W-17" edge="1">
          <mxGeometry relative="1" as="geometry">
            <mxPoint x="350" y="240" as="sourcePoint" />
            <mxPoint x="310" y="110" as="targetPoint" />
          </mxGeometry>
        </mxCell>
        <mxCell id="9i4z-jBxVUCQvBWelNB4-1" value="&lt;font style=&quot;font-size: 14px;&quot;&gt;Получение HR изображений по path&lt;/font&gt;" style="shape=document;whiteSpace=wrap;html=1;boundedLbl=1;fontSize=14;" vertex="1" parent="1">
          <mxGeometry x="160" y="150" width="140" height="60" as="geometry" />
        </mxCell>
      </root>
    </mxGraphModel>
  </diagram>
  <diagram id="Rd0z_U3nUvr18kmsySjf" name="Страница — 4">
    <mxGraphModel dx="880" dy="468" grid="1" gridSize="10" guides="1" tooltips="1" connect="1" arrows="1" fold="1" page="1" pageScale="1" pageWidth="827" pageHeight="1169" math="0" shadow="0">
      <root>
        <mxCell id="0" />
        <mxCell id="1" parent="0" />
        <mxCell id="I7EMx3vyXtV-4TVF4EG8-9" style="edgeStyle=orthogonalEdgeStyle;rounded=0;orthogonalLoop=1;jettySize=auto;html=1;exitX=0.5;exitY=1;exitDx=0;exitDy=0;exitPerimeter=0;fontFamily=Helvetica;fontSize=12;fontColor=default;endArrow=none;endFill=0;" parent="1" source="qmq7UWJL8kzWTT1KFBFC-1" target="I7EMx3vyXtV-4TVF4EG8-8" edge="1">
          <mxGeometry relative="1" as="geometry" />
        </mxCell>
        <mxCell id="qmq7UWJL8kzWTT1KFBFC-1" value="Начало" style="strokeWidth=1;html=1;shape=mxgraph.flowchart.terminator;whiteSpace=wrap;rounded=1;fontSize=14;" parent="1" vertex="1">
          <mxGeometry x="150" y="110" width="140" height="60" as="geometry" />
        </mxCell>
        <mxCell id="lv7kyYInMUF-hCmylzJT-1" value="Входные параметры:&lt;div style=&quot;font-size: 13px;&quot;&gt;LR1, LR2 -&amp;nbsp; наборы низкого разр.&lt;/div&gt;&lt;div style=&quot;font-size: 13px;&quot;&gt;HR - набор высокого разр.&lt;/div&gt;&lt;div style=&quot;font-size: 13px;&quot;&gt;lr_crop_size - размер обрезки LR наборов&lt;/div&gt;&lt;div style=&quot;font-size: 13px;&quot;&gt;hr_crop_size - размер обрезки HR набора&amp;nbsp;&lt;/div&gt;" style="strokeWidth=1;html=1;shape=mxgraph.flowchart.annotation_1;align=left;pointerEvents=1;rounded=1;fontSize=13;" parent="1" vertex="1">
          <mxGeometry x="330" y="97.5" width="70" height="85" as="geometry" />
        </mxCell>
        <mxCell id="lv7kyYInMUF-hCmylzJT-2" style="edgeStyle=orthogonalEdgeStyle;rounded=1;orthogonalLoop=1;jettySize=auto;html=1;exitX=0;exitY=0.5;exitDx=0;exitDy=0;exitPerimeter=0;entryX=1;entryY=0.5;entryDx=0;entryDy=0;entryPerimeter=0;dashed=1;endArrow=none;endFill=0;fontSize=12;" parent="1" source="lv7kyYInMUF-hCmylzJT-1" target="qmq7UWJL8kzWTT1KFBFC-1" edge="1">
          <mxGeometry relative="1" as="geometry" />
        </mxCell>
        <mxCell id="I7EMx3vyXtV-4TVF4EG8-13" style="edgeStyle=orthogonalEdgeStyle;rounded=0;orthogonalLoop=1;jettySize=auto;html=1;exitX=0.5;exitY=1;exitDx=0;exitDy=0;entryX=0.5;entryY=0;entryDx=0;entryDy=0;fontFamily=Helvetica;fontSize=12;fontColor=default;endArrow=none;endFill=0;" parent="1" source="I7EMx3vyXtV-4TVF4EG8-5" target="I7EMx3vyXtV-4TVF4EG8-12" edge="1">
          <mxGeometry relative="1" as="geometry" />
        </mxCell>
        <mxCell id="I7EMx3vyXtV-4TVF4EG8-5" value="pad := &lt;br style=&quot;font-size: 14px;&quot;&gt;(lr_crop_size - hr_crop_size) // 2" style="rounded=0;whiteSpace=wrap;html=1;shadow=0;comic=0;strokeColor=default;strokeWidth=1;align=center;verticalAlign=middle;fontFamily=Helvetica;fontSize=14;fontColor=default;fillColor=default;" parent="1" vertex="1">
          <mxGeometry x="150" y="270" width="140" height="60" as="geometry" />
        </mxCell>
        <mxCell id="I7EMx3vyXtV-4TVF4EG8-10" style="edgeStyle=orthogonalEdgeStyle;rounded=0;orthogonalLoop=1;jettySize=auto;html=1;exitX=0.5;exitY=1;exitDx=0;exitDy=0;exitPerimeter=0;fontFamily=Helvetica;fontSize=12;fontColor=default;endArrow=none;endFill=0;" parent="1" source="I7EMx3vyXtV-4TVF4EG8-8" target="I7EMx3vyXtV-4TVF4EG8-5" edge="1">
          <mxGeometry relative="1" as="geometry" />
        </mxCell>
        <mxCell id="I7EMx3vyXtV-4TVF4EG8-8" value="&lt;font style=&quot;font-size: 14px;&quot;&gt;Проход по&lt;br style=&quot;&quot;&gt;эл. в LR1, LR2, HR параллельно&lt;/font&gt;" style="strokeWidth=1;html=1;shape=stencil(rZVNb4MwDIZ/Ta5VIFpXjlPWnapeetg5pe6ICgkKWbv9+6W4aHwMxrxKHPBreB9sbIUJWWWqBBZzowpg4pnF8cbaMggbXWgfwnCbYWLJMbxgmKwwVFUJqUftrJxW+xwwU3lnT3DRB39z0CYDh65izfhTeOZ6CZlaY4KJtqbqZFr5YKa0Ce/yDzTjiwfEfN5ijMpAKMCD66jf5W1RYPELmRTNI+0IpG5FDfc30uvfSRGNtKZ0r8+KZsK2hLr4gsc9XLKayduReAm1OlIvm60jVDfCEzIoYwso5F6lpzdn383hx68s1XW5B4kmXdgztIau16upBjQOuTYth8d/O/QaeAeLJcGC39mBUgblb6S5rWBiaIM+mIhaHRkjIY/WwcR8HXWe4zkyNroDg1rFc60WvgA=);whiteSpace=wrap;rounded=1;shadow=0;comic=0;strokeColor=default;align=center;verticalAlign=middle;fontFamily=Helvetica;fontSize=13;fontColor=default;fillColor=default;" parent="1" vertex="1">
          <mxGeometry x="150" y="190" width="140" height="60" as="geometry" />
        </mxCell>
        <mxCell id="I7EMx3vyXtV-4TVF4EG8-11" value="По x от 0 до ближайшего кратного step к (h -&amp;nbsp;&lt;span style=&quot;text-align: left; text-wrap: nowrap; font-size: 13px;&quot;&gt;lr_crop_size)&amp;nbsp;&lt;/span&gt;" style="strokeWidth=1;html=1;shape=stencil(rZVNb4MwDIZ/Ta5VIFpXjlPWnapeetg5pe6ICgkKWbv9+6W4aHwMxrxKHPBreB9sbIUJWWWqBBZzowpg4pnF8cbaMggbXWgfwnCbYWLJMbxgmKwwVFUJqUftrJxW+xwwU3lnT3DRB39z0CYDh65izfhTeOZ6CZlaY4KJtqbqZFr5YKa0Ce/yDzTjiwfEfN5ijMpAKMCD66jf5W1RYPELmRTNI+0IpG5FDfc30uvfSRGNtKZ0r8+KZsK2hLr4gsc9XLKayduReAm1OlIvm60jVDfCEzIoYwso5F6lpzdn383hx68s1XW5B4kmXdgztIau16upBjQOuTYth8d/O/QaeAeLJcGC39mBUgblb6S5rWBiaIM+mIhaHRkjIY/WwcR8HXWe4zkyNroDg1rFc60WvgA=);whiteSpace=wrap;rounded=1;shadow=0;comic=0;strokeColor=default;align=center;verticalAlign=middle;fontFamily=Helvetica;fontSize=13;fontColor=default;fillColor=default;" parent="1" vertex="1">
          <mxGeometry x="150" y="430" width="140" height="60" as="geometry" />
        </mxCell>
        <mxCell id="I7EMx3vyXtV-4TVF4EG8-12" value="Выбор сдвига по изображению (step)" style="rounded=0;whiteSpace=wrap;html=1;shadow=0;comic=0;strokeColor=default;strokeWidth=1;align=center;verticalAlign=middle;fontFamily=Helvetica;fontSize=14;fontColor=default;fillColor=default;" parent="1" vertex="1">
          <mxGeometry x="150" y="350" width="140" height="60" as="geometry" />
        </mxCell>
        <mxCell id="I7EMx3vyXtV-4TVF4EG8-14" style="edgeStyle=orthogonalEdgeStyle;rounded=0;orthogonalLoop=1;jettySize=auto;html=1;exitX=0.5;exitY=1;exitDx=0;exitDy=0;entryX=0.5;entryY=0;entryDx=0;entryDy=0;entryPerimeter=0;fontFamily=Helvetica;fontSize=12;fontColor=default;endArrow=none;endFill=0;" parent="1" source="I7EMx3vyXtV-4TVF4EG8-12" target="I7EMx3vyXtV-4TVF4EG8-11" edge="1">
          <mxGeometry relative="1" as="geometry" />
        </mxCell>
        <mxCell id="I7EMx3vyXtV-4TVF4EG8-23" style="edgeStyle=orthogonalEdgeStyle;rounded=0;orthogonalLoop=1;jettySize=auto;html=1;entryX=0.5;entryY=0;entryDx=0;entryDy=0;fontFamily=Helvetica;fontSize=12;fontColor=default;endArrow=none;endFill=0;" parent="1" source="2rKaA1Qy4aNSiyzoQHeX-2" target="I7EMx3vyXtV-4TVF4EG8-17" edge="1">
          <mxGeometry relative="1" as="geometry">
            <mxPoint x="390" y="260" as="sourcePoint" />
          </mxGeometry>
        </mxCell>
        <mxCell id="2rKaA1Qy4aNSiyzoQHeX-1" style="edgeStyle=orthogonalEdgeStyle;rounded=0;orthogonalLoop=1;jettySize=auto;html=1;exitX=0.5;exitY=1;exitDx=0;exitDy=0;exitPerimeter=0;endArrow=none;endFill=0;" edge="1" parent="1" source="I7EMx3vyXtV-4TVF4EG8-15" target="nmiDvzfr7onoTXAavYpg-1">
          <mxGeometry relative="1" as="geometry" />
        </mxCell>
        <mxCell id="I7EMx3vyXtV-4TVF4EG8-15" value="По y от 0 до ближайшего кратного step к (w -&amp;nbsp;&lt;span style=&quot;text-align: left; text-wrap: nowrap; font-size: 13px;&quot;&gt;lr_crop_size)&amp;nbsp;&lt;/span&gt;" style="strokeWidth=1;html=1;shape=stencil(rZVNb4MwDIZ/Ta5VIFpXjlPWnapeetg5pe6ICgkKWbv9+6W4aHwMxrxKHPBreB9sbIUJWWWqBBZzowpg4pnF8cbaMggbXWgfwnCbYWLJMbxgmKwwVFUJqUftrJxW+xwwU3lnT3DRB39z0CYDh65izfhTeOZ6CZlaY4KJtqbqZFr5YKa0Ce/yDzTjiwfEfN5ijMpAKMCD66jf5W1RYPELmRTNI+0IpG5FDfc30uvfSRGNtKZ0r8+KZsK2hLr4gsc9XLKayduReAm1OlIvm60jVDfCEzIoYwso5F6lpzdn383hx68s1XW5B4kmXdgztIau16upBjQOuTYth8d/O/QaeAeLJcGC39mBUgblb6S5rWBiaIM+mIhaHRkjIY/WwcR8HXWe4zkyNroDg1rFc60WvgA=);whiteSpace=wrap;rounded=1;shadow=0;comic=0;strokeColor=default;align=center;verticalAlign=middle;fontFamily=Helvetica;fontSize=13;fontColor=default;fillColor=default;" parent="1" vertex="1">
          <mxGeometry x="150" y="510" width="140" height="60" as="geometry" />
        </mxCell>
        <mxCell id="I7EMx3vyXtV-4TVF4EG8-16" style="edgeStyle=orthogonalEdgeStyle;rounded=0;orthogonalLoop=1;jettySize=auto;html=1;exitX=0.5;exitY=1;exitDx=0;exitDy=0;exitPerimeter=0;entryX=0.5;entryY=0;entryDx=0;entryDy=0;entryPerimeter=0;fontFamily=Helvetica;fontSize=12;fontColor=default;endArrow=none;endFill=0;" parent="1" source="I7EMx3vyXtV-4TVF4EG8-11" target="I7EMx3vyXtV-4TVF4EG8-15" edge="1">
          <mxGeometry relative="1" as="geometry" />
        </mxCell>
        <mxCell id="I7EMx3vyXtV-4TVF4EG8-25" style="edgeStyle=orthogonalEdgeStyle;rounded=0;orthogonalLoop=1;jettySize=auto;html=1;exitX=0.5;exitY=1;exitDx=0;exitDy=0;fontFamily=Helvetica;fontSize=12;fontColor=default;endArrow=none;endFill=0;" parent="1" source="I7EMx3vyXtV-4TVF4EG8-17" target="I7EMx3vyXtV-4TVF4EG8-24" edge="1">
          <mxGeometry relative="1" as="geometry" />
        </mxCell>
        <mxCell id="I7EMx3vyXtV-4TVF4EG8-17" value="Получение срезов &lt;br style=&quot;font-size: 13px;&quot;&gt;в LR1 и LR2 &lt;br style=&quot;font-size: 13px;&quot;&gt;от x&lt;span style=&quot;background-color: initial; font-size: 13px;&quot;&gt;&amp;nbsp;до x +&amp;nbsp;&lt;/span&gt;&lt;span style=&quot;background-color: initial; text-wrap: nowrap; text-align: left; font-size: 13px;&quot;&gt;lr_crop_size&lt;/span&gt;" style="rounded=0;whiteSpace=wrap;html=1;shadow=0;comic=0;strokeColor=default;strokeWidth=1;align=center;verticalAlign=middle;fontFamily=Helvetica;fontSize=13;fontColor=default;fillColor=default;" parent="1" vertex="1">
          <mxGeometry x="320" y="267.5" width="140" height="65" as="geometry" />
        </mxCell>
        <mxCell id="I7EMx3vyXtV-4TVF4EG8-18" value="Получение участка изобр.&lt;div style=&quot;font-size: 13px;&quot;&gt;размером lr_crop_size * lr_crop_size,&amp;nbsp;&lt;br style=&quot;font-size: 13px;&quot;&gt;нижний левый угол которого имеет&amp;nbsp;&lt;br style=&quot;font-size: 13px;&quot;&gt;координаты (x, y)&lt;/div&gt;" style="strokeWidth=1;html=1;shape=mxgraph.flowchart.annotation_1;align=left;pointerEvents=1;rounded=1;fontSize=13;" parent="1" vertex="1">
          <mxGeometry x="480" y="265" width="70" height="70" as="geometry" />
        </mxCell>
        <mxCell id="I7EMx3vyXtV-4TVF4EG8-19" style="edgeStyle=orthogonalEdgeStyle;rounded=0;orthogonalLoop=1;jettySize=auto;html=1;exitX=1;exitY=0.5;exitDx=0;exitDy=0;entryX=0;entryY=0.5;entryDx=0;entryDy=0;entryPerimeter=0;fontFamily=Helvetica;fontSize=12;fontColor=default;endArrow=none;endFill=0;dashed=1;jumpStyle=arc;" parent="1" source="I7EMx3vyXtV-4TVF4EG8-17" target="I7EMx3vyXtV-4TVF4EG8-18" edge="1">
          <mxGeometry relative="1" as="geometry" />
        </mxCell>
        <mxCell id="I7EMx3vyXtV-4TVF4EG8-32" style="edgeStyle=orthogonalEdgeStyle;rounded=0;orthogonalLoop=1;jettySize=auto;html=1;exitX=0.5;exitY=1;exitDx=0;exitDy=0;fontFamily=Helvetica;fontSize=12;fontColor=default;endArrow=none;endFill=0;" parent="1" source="I7EMx3vyXtV-4TVF4EG8-24" target="I7EMx3vyXtV-4TVF4EG8-29" edge="1">
          <mxGeometry relative="1" as="geometry" />
        </mxCell>
        <mxCell id="I7EMx3vyXtV-4TVF4EG8-24" value="&lt;font style=&quot;font-size: 13px;&quot;&gt;Получение среза в HR&lt;br style=&quot;&quot;&gt;от x + pad&amp;nbsp;&lt;br&gt;до x + pad&amp;nbsp;&amp;nbsp;+&amp;nbsp;&lt;br style=&quot;&quot;&gt;&lt;span style=&quot;text-align: left; text-wrap: nowrap;&quot;&gt;hr_crop_size&lt;/span&gt;&lt;/font&gt;" style="rounded=0;whiteSpace=wrap;html=1;shadow=0;comic=0;strokeColor=default;strokeWidth=1;align=center;verticalAlign=middle;fontFamily=Helvetica;fontSize=12;fontColor=default;fillColor=default;" parent="1" vertex="1">
          <mxGeometry x="320" y="350" width="140" height="65" as="geometry" />
        </mxCell>
        <mxCell id="I7EMx3vyXtV-4TVF4EG8-26" value="Получение участка изобр.&lt;div style=&quot;font-size: 13px;&quot;&gt;размером hr_crop_size * hr_crop_size,&amp;nbsp;&lt;br style=&quot;font-size: 13px;&quot;&gt;который вырезан из участка lr&lt;br style=&quot;font-size: 13px;&quot;&gt;с отступом от каждой стороны = pad&lt;/div&gt;" style="strokeWidth=1;html=1;shape=mxgraph.flowchart.annotation_1;align=left;pointerEvents=1;rounded=1;fontSize=13;" parent="1" vertex="1">
          <mxGeometry x="480" y="345" width="70" height="70" as="geometry" />
        </mxCell>
        <mxCell id="I7EMx3vyXtV-4TVF4EG8-28" style="edgeStyle=orthogonalEdgeStyle;rounded=0;orthogonalLoop=1;jettySize=auto;html=1;exitX=1;exitY=0.5;exitDx=0;exitDy=0;entryX=0;entryY=0.5;entryDx=0;entryDy=0;entryPerimeter=0;fontFamily=Helvetica;fontSize=12;fontColor=default;endArrow=none;endFill=0;dashed=1;jumpStyle=arc;" parent="1" source="I7EMx3vyXtV-4TVF4EG8-24" target="I7EMx3vyXtV-4TVF4EG8-26" edge="1">
          <mxGeometry relative="1" as="geometry">
            <mxPoint x="450" y="490" as="sourcePoint" />
            <mxPoint x="490" y="490" as="targetPoint" />
          </mxGeometry>
        </mxCell>
        <mxCell id="I7EMx3vyXtV-4TVF4EG8-29" value="" style="strokeWidth=1;html=1;shape=stencil(rZVNb4MwDIZ/Ta5VIFpXjlPWnapeetg5pe6ICgkKWbv9+6W4aHwMxrxKHPBreB9sbIUJWWWqBBZzowpg4pnF8cbaMggbXWgfwnCbYWLJMbxgmKwwVFUJqUftrJxW+xwwU3lnT3DRB39z0CYDh65izfhTeOZ6CZlaY4KJtqbqZFr5YKa0Ce/yDzTjiwfEfN5ijMpAKMCD66jf5W1RYPELmRTNI+0IpG5FDfc30uvfSRGNtKZ0r8+KZsK2hLr4gsc9XLKayduReAm1OlIvm60jVDfCEzIoYwso5F6lpzdn383hx68s1XW5B4kmXdgztIau16upBjQOuTYth8d/O/QaeAeLJcGC39mBUgblb6S5rWBiaIM+mIhaHRkjIY/WwcR8HXWe4zkyNroDg1rFc60WvgA=);whiteSpace=wrap;rounded=1;shadow=0;comic=0;strokeColor=default;align=center;verticalAlign=middle;fontFamily=Helvetica;fontSize=12;fontColor=default;fillColor=default;rotation=-180;" parent="1" vertex="1">
          <mxGeometry x="320" y="430" width="140" height="60" as="geometry" />
        </mxCell>
        <mxCell id="I7EMx3vyXtV-4TVF4EG8-30" value="y:= y + step" style="text;html=1;align=center;verticalAlign=middle;whiteSpace=wrap;rounded=0;fontFamily=Helvetica;fontSize=14;fontColor=default;" parent="1" vertex="1">
          <mxGeometry x="352.5" y="444.5" width="75" height="31" as="geometry" />
        </mxCell>
        <mxCell id="I7EMx3vyXtV-4TVF4EG8-35" value="" style="strokeWidth=1;html=1;shape=stencil(rZVNb4MwDIZ/Ta5VIFpXjlPWnapeetg5pe6ICgkKWbv9+6W4aHwMxrxKHPBreB9sbIUJWWWqBBZzowpg4pnF8cbaMggbXWgfwnCbYWLJMbxgmKwwVFUJqUftrJxW+xwwU3lnT3DRB39z0CYDh65izfhTeOZ6CZlaY4KJtqbqZFr5YKa0Ce/yDzTjiwfEfN5ijMpAKMCD66jf5W1RYPELmRTNI+0IpG5FDfc30uvfSRGNtKZ0r8+KZsK2hLr4gsc9XLKayduReAm1OlIvm60jVDfCEzIoYwso5F6lpzdn383hx68s1XW5B4kmXdgztIau16upBjQOuTYth8d/O/QaeAeLJcGC39mBUgblb6S5rWBiaIM+mIhaHRkjIY/WwcR8HXWe4zkyNroDg1rFc60WvgA=);whiteSpace=wrap;rounded=1;shadow=0;comic=0;strokeColor=default;align=center;verticalAlign=middle;fontFamily=Helvetica;fontSize=12;fontColor=default;fillColor=default;rotation=-180;" parent="1" vertex="1">
          <mxGeometry x="320" y="510" width="140" height="60" as="geometry" />
        </mxCell>
        <mxCell id="I7EMx3vyXtV-4TVF4EG8-36" value="x:= x + step" style="text;html=1;align=center;verticalAlign=middle;whiteSpace=wrap;rounded=0;fontFamily=Helvetica;fontSize=14;fontColor=default;" parent="1" vertex="1">
          <mxGeometry x="352.5" y="524.5" width="80" height="31" as="geometry" />
        </mxCell>
        <mxCell id="I7EMx3vyXtV-4TVF4EG8-38" value="Конец" style="strokeWidth=1;html=1;shape=mxgraph.flowchart.terminator;whiteSpace=wrap;rounded=1;fontSize=14;" parent="1" vertex="1">
          <mxGeometry x="320" y="590" width="140" height="60" as="geometry" />
        </mxCell>
        <mxCell id="pjYsSebNcQtA6_6Pe0jH-1" style="edgeStyle=orthogonalEdgeStyle;rounded=0;orthogonalLoop=1;jettySize=auto;html=1;exitX=0.5;exitY=0;exitDx=0;exitDy=0;exitPerimeter=0;entryX=0.5;entryY=1;entryDx=0;entryDy=0;entryPerimeter=0;startArrow=none;startFill=0;endArrow=none;endFill=0;fontSize=12;" parent="1" source="I7EMx3vyXtV-4TVF4EG8-29" target="I7EMx3vyXtV-4TVF4EG8-35" edge="1">
          <mxGeometry relative="1" as="geometry" />
        </mxCell>
        <mxCell id="pjYsSebNcQtA6_6Pe0jH-2" style="edgeStyle=orthogonalEdgeStyle;rounded=0;orthogonalLoop=1;jettySize=auto;html=1;exitX=0.5;exitY=0;exitDx=0;exitDy=0;exitPerimeter=0;entryX=0.5;entryY=0;entryDx=0;entryDy=0;entryPerimeter=0;endArrow=none;endFill=0;fontSize=12;" parent="1" source="I7EMx3vyXtV-4TVF4EG8-35" target="I7EMx3vyXtV-4TVF4EG8-38" edge="1">
          <mxGeometry relative="1" as="geometry" />
        </mxCell>
        <mxCell id="nmiDvzfr7onoTXAavYpg-1" value="А" style="ellipse;whiteSpace=wrap;html=1;aspect=fixed;" vertex="1" parent="1">
          <mxGeometry x="200" y="585" width="40" height="40" as="geometry" />
        </mxCell>
        <mxCell id="2rKaA1Qy4aNSiyzoQHeX-2" value="А" style="ellipse;whiteSpace=wrap;html=1;aspect=fixed;" vertex="1" parent="1">
          <mxGeometry x="370" y="200" width="40" height="40" as="geometry" />
        </mxCell>
      </root>
    </mxGraphModel>
  </diagram>
  <diagram id="Gs-kKZhHmUlBfq00t4Kv" name="Страница — 5">
    <mxGraphModel dx="880" dy="468" grid="1" gridSize="10" guides="1" tooltips="1" connect="1" arrows="1" fold="1" page="1" pageScale="1" pageWidth="827" pageHeight="1169" math="0" shadow="0">
      <root>
        <mxCell id="0" />
        <mxCell id="1" parent="0" />
        <mxCell id="hqn-iKiBRwucq3O-ZSHG-1" style="edgeStyle=orthogonalEdgeStyle;rounded=0;orthogonalLoop=1;jettySize=auto;html=1;exitX=0.5;exitY=1;exitDx=0;exitDy=0;exitPerimeter=0;fontFamily=Helvetica;fontSize=12;fontColor=default;endArrow=none;endFill=0;" parent="1" source="XCnWRZwOwekq3XJOm0Rn-1" target="XCnWRZwOwekq3XJOm0Rn-2" edge="1">
          <mxGeometry relative="1" as="geometry" />
        </mxCell>
        <mxCell id="XCnWRZwOwekq3XJOm0Rn-1" value="Начало" style="strokeWidth=1;html=1;shape=mxgraph.flowchart.terminator;whiteSpace=wrap;rounded=1;shadow=0;comic=0;strokeColor=default;align=center;verticalAlign=middle;fontFamily=Helvetica;fontSize=12;fontColor=default;fillColor=default;" parent="1" vertex="1">
          <mxGeometry x="120" y="70" width="140" height="60" as="geometry" />
        </mxCell>
        <mxCell id="hqn-iKiBRwucq3O-ZSHG-3" style="edgeStyle=orthogonalEdgeStyle;rounded=0;orthogonalLoop=1;jettySize=auto;html=1;exitX=0.5;exitY=1;exitDx=0;exitDy=0;fontFamily=Helvetica;fontSize=12;fontColor=default;endArrow=none;endFill=0;" parent="1" source="XCnWRZwOwekq3XJOm0Rn-2" target="hqn-iKiBRwucq3O-ZSHG-2" edge="1">
          <mxGeometry relative="1" as="geometry" />
        </mxCell>
        <mxCell id="XCnWRZwOwekq3XJOm0Rn-2" value="Конкатенация изображений наборов LR1 и LR2" style="rounded=0;whiteSpace=wrap;html=1;shadow=0;comic=0;strokeColor=default;strokeWidth=1;align=center;verticalAlign=middle;fontFamily=Helvetica;fontSize=12;fontColor=default;fillColor=default;" parent="1" vertex="1">
          <mxGeometry x="120" y="150" width="140" height="60" as="geometry" />
        </mxCell>
        <mxCell id="hqn-iKiBRwucq3O-ZSHG-5" style="edgeStyle=orthogonalEdgeStyle;rounded=0;orthogonalLoop=1;jettySize=auto;html=1;exitX=0.5;exitY=1;exitDx=0;exitDy=0;fontFamily=Helvetica;fontSize=12;fontColor=default;endArrow=none;endFill=0;" parent="1" source="hqn-iKiBRwucq3O-ZSHG-2" target="hqn-iKiBRwucq3O-ZSHG-4" edge="1">
          <mxGeometry relative="1" as="geometry" />
        </mxCell>
        <mxCell id="hqn-iKiBRwucq3O-ZSHG-2" value="Извлечение признаков сверточным слоем №1 с ksize = 9" style="rounded=0;whiteSpace=wrap;html=1;shadow=0;comic=0;strokeColor=default;strokeWidth=1;align=center;verticalAlign=middle;fontFamily=Helvetica;fontSize=12;fontColor=default;fillColor=default;" parent="1" vertex="1">
          <mxGeometry x="120" y="230" width="140" height="60" as="geometry" />
        </mxCell>
        <mxCell id="hqn-iKiBRwucq3O-ZSHG-7" style="edgeStyle=orthogonalEdgeStyle;rounded=0;orthogonalLoop=1;jettySize=auto;html=1;exitX=0.5;exitY=1;exitDx=0;exitDy=0;fontFamily=Helvetica;fontSize=12;fontColor=default;endArrow=none;endFill=0;" parent="1" source="hqn-iKiBRwucq3O-ZSHG-4" target="hqn-iKiBRwucq3O-ZSHG-6" edge="1">
          <mxGeometry relative="1" as="geometry" />
        </mxCell>
        <mxCell id="hqn-iKiBRwucq3O-ZSHG-4" value="Нелинейное преобразование на слое №2 с ksize = arch" style="rounded=0;whiteSpace=wrap;html=1;shadow=0;comic=0;strokeColor=default;strokeWidth=1;align=center;verticalAlign=middle;fontFamily=Helvetica;fontSize=12;fontColor=default;fillColor=default;" parent="1" vertex="1">
          <mxGeometry x="120" y="310" width="140" height="60" as="geometry" />
        </mxCell>
        <mxCell id="hqn-iKiBRwucq3O-ZSHG-9" style="edgeStyle=orthogonalEdgeStyle;rounded=0;orthogonalLoop=1;jettySize=auto;html=1;exitX=0.5;exitY=1;exitDx=0;exitDy=0;entryX=0.5;entryY=0;entryDx=0;entryDy=0;fontFamily=Helvetica;fontSize=12;fontColor=default;endArrow=none;endFill=0;" parent="1" source="hqn-iKiBRwucq3O-ZSHG-6" target="hqn-iKiBRwucq3O-ZSHG-8" edge="1">
          <mxGeometry relative="1" as="geometry" />
        </mxCell>
        <mxCell id="hqn-iKiBRwucq3O-ZSHG-6" value="Функция активации ReLU" style="rounded=0;whiteSpace=wrap;html=1;shadow=0;comic=0;strokeColor=default;strokeWidth=1;align=center;verticalAlign=middle;fontFamily=Helvetica;fontSize=12;fontColor=default;fillColor=default;" parent="1" vertex="1">
          <mxGeometry x="120" y="390" width="140" height="60" as="geometry" />
        </mxCell>
        <mxCell id="hqn-iKiBRwucq3O-ZSHG-8" value="Восстановление HR изобр. из извлеченных признаков на слое №3 с ksize = 3" style="rounded=0;whiteSpace=wrap;html=1;shadow=0;comic=0;strokeColor=default;strokeWidth=1;align=center;verticalAlign=middle;fontFamily=Helvetica;fontSize=12;fontColor=default;fillColor=default;" parent="1" vertex="1">
          <mxGeometry x="120" y="470" width="140" height="60" as="geometry" />
        </mxCell>
        <mxCell id="hqn-iKiBRwucq3O-ZSHG-12" style="edgeStyle=orthogonalEdgeStyle;rounded=0;orthogonalLoop=1;jettySize=auto;html=1;exitX=0;exitY=0.5;exitDx=0;exitDy=0;exitPerimeter=0;fontFamily=Helvetica;fontSize=12;fontColor=default;endArrow=none;endFill=0;dashed=1;entryX=1;entryY=0.5;entryDx=0;entryDy=0;entryPerimeter=0;" parent="1" source="hqn-iKiBRwucq3O-ZSHG-10" target="XCnWRZwOwekq3XJOm0Rn-1" edge="1">
          <mxGeometry relative="1" as="geometry" />
        </mxCell>
        <mxCell id="hqn-iKiBRwucq3O-ZSHG-10" value="Входные параметры:&lt;div&gt;LR1, LR2 -&amp;nbsp; наборы низкого разр.&lt;br&gt;&lt;/div&gt;&lt;div&gt;arch - размер ядра свертки &lt;br&gt;&amp;nbsp; &amp;nbsp; &amp;nbsp; &amp;nbsp; &amp;nbsp; на слое №2&lt;/div&gt;" style="strokeWidth=1;html=1;shape=mxgraph.flowchart.annotation_1;align=left;pointerEvents=1;rounded=1;shadow=0;comic=0;strokeColor=default;verticalAlign=middle;fontFamily=Helvetica;fontSize=12;fontColor=default;fillColor=default;" parent="1" vertex="1">
          <mxGeometry x="300" y="65" width="70" height="70" as="geometry" />
        </mxCell>
        <mxCell id="hMAr6cd5OvA_10a3uccb-1" value="Начало" style="strokeWidth=1;html=1;shape=mxgraph.flowchart.terminator;whiteSpace=wrap;rounded=1;shadow=0;comic=0;strokeColor=default;align=center;verticalAlign=middle;fontFamily=Helvetica;fontSize=12;fontColor=default;fillColor=default;" parent="1" vertex="1">
          <mxGeometry x="120" y="550.5" width="140" height="60" as="geometry" />
        </mxCell>
        <mxCell id="hMAr6cd5OvA_10a3uccb-2" style="edgeStyle=orthogonalEdgeStyle;rounded=0;orthogonalLoop=1;jettySize=auto;html=1;exitX=0.5;exitY=1;exitDx=0;exitDy=0;entryX=0.5;entryY=0;entryDx=0;entryDy=0;entryPerimeter=0;fontFamily=Helvetica;fontSize=12;fontColor=default;endArrow=none;endFill=0;" parent="1" source="hqn-iKiBRwucq3O-ZSHG-8" target="hMAr6cd5OvA_10a3uccb-1" edge="1">
          <mxGeometry relative="1" as="geometry" />
        </mxCell>
      </root>
    </mxGraphModel>
  </diagram>
  <diagram id="C8cjVmbo2PiTWmdgxwka" name="Страница — 6">
    <mxGraphModel dx="880" dy="468" grid="1" gridSize="10" guides="1" tooltips="1" connect="1" arrows="1" fold="1" page="1" pageScale="1" pageWidth="827" pageHeight="1169" math="0" shadow="0">
      <root>
        <mxCell id="0" />
        <mxCell id="1" parent="0" />
        <mxCell id="5Oy_P4s3OPFpKS4PIujk-1" value="" style="endArrow=none;html=1;rounded=0;fontFamily=Helvetica;fontSize=14;fontColor=default;entryX=0.5;entryY=1;entryDx=0;entryDy=0;entryPerimeter=0;" parent="1" source="5Oy_P4s3OPFpKS4PIujk-6" target="5Oy_P4s3OPFpKS4PIujk-2" edge="1">
          <mxGeometry width="50" height="50" relative="1" as="geometry">
            <mxPoint x="270" y="290" as="sourcePoint" />
            <mxPoint x="320" y="240" as="targetPoint" />
          </mxGeometry>
        </mxCell>
        <mxCell id="5Oy_P4s3OPFpKS4PIujk-2" value="Начало" style="strokeWidth=1;html=1;shape=mxgraph.flowchart.terminator;whiteSpace=wrap;fontSize=14;" parent="1" vertex="1">
          <mxGeometry x="160" y="70" width="140" height="60" as="geometry" />
        </mxCell>
        <mxCell id="5Oy_P4s3OPFpKS4PIujk-3" style="edgeStyle=orthogonalEdgeStyle;rounded=0;orthogonalLoop=1;jettySize=auto;html=1;exitX=0;exitY=0.5;exitDx=0;exitDy=0;exitPerimeter=0;entryX=1;entryY=0.5;entryDx=0;entryDy=0;entryPerimeter=0;endArrow=none;endFill=0;dashed=1;fontSize=14;" parent="1" source="5Oy_P4s3OPFpKS4PIujk-4" target="5Oy_P4s3OPFpKS4PIujk-2" edge="1">
          <mxGeometry relative="1" as="geometry">
            <mxPoint x="310" y="100" as="sourcePoint" />
          </mxGeometry>
        </mxCell>
        <mxCell id="5Oy_P4s3OPFpKS4PIujk-4" value="Входные параметры:&lt;div style=&quot;font-size: 14px;&quot;&gt;path1, path2 - пути к img1, img2&lt;br style=&quot;font-size: 14px;&quot;&gt;&lt;/div&gt;&lt;div style=&quot;font-size: 14px;&quot;&gt;arch - номер архитектуры&lt;/div&gt;&lt;div style=&quot;font-size: 14px;&quot;&gt;scale - коэфф. масштабирования&lt;/div&gt;" style="strokeWidth=1;html=1;shape=mxgraph.flowchart.annotation_1;align=left;pointerEvents=1;fontSize=14;" parent="1" vertex="1">
          <mxGeometry x="340" y="65" width="70" height="70" as="geometry" />
        </mxCell>
        <mxCell id="5Oy_P4s3OPFpKS4PIujk-5" style="edgeStyle=orthogonalEdgeStyle;rounded=0;orthogonalLoop=1;jettySize=auto;html=1;exitX=0.5;exitY=1;exitDx=0;exitDy=0;entryX=0.5;entryY=0;entryDx=0;entryDy=0;endArrow=none;endFill=0;fontSize=14;" parent="1" source="5Oy_P4s3OPFpKS4PIujk-6" target="5Oy_P4s3OPFpKS4PIujk-8" edge="1">
          <mxGeometry relative="1" as="geometry" />
        </mxCell>
        <mxCell id="5Oy_P4s3OPFpKS4PIujk-6" value="Бикуб. увел. разр. img1, img2 в scale раз&amp;nbsp;" style="rounded=0;whiteSpace=wrap;html=1;fontSize=14;" parent="1" vertex="1">
          <mxGeometry x="160" y="230" width="140" height="60" as="geometry" />
        </mxCell>
        <mxCell id="5Oy_P4s3OPFpKS4PIujk-7" style="edgeStyle=orthogonalEdgeStyle;rounded=0;orthogonalLoop=1;jettySize=auto;html=1;exitX=0.5;exitY=1;exitDx=0;exitDy=0;endArrow=none;endFill=0;fontSize=14;" parent="1" source="5Oy_P4s3OPFpKS4PIujk-8" target="5Oy_P4s3OPFpKS4PIujk-10" edge="1">
          <mxGeometry relative="1" as="geometry" />
        </mxCell>
        <mxCell id="5Oy_P4s3OPFpKS4PIujk-8" value="Перевод img1, img2 в YCbCr" style="rounded=0;whiteSpace=wrap;html=1;fontSize=14;" parent="1" vertex="1">
          <mxGeometry x="160" y="310" width="140" height="60" as="geometry" />
        </mxCell>
        <mxCell id="5Oy_P4s3OPFpKS4PIujk-9" style="edgeStyle=orthogonalEdgeStyle;rounded=0;orthogonalLoop=1;jettySize=auto;html=1;exitX=0.5;exitY=1;exitDx=0;exitDy=0;endArrow=none;endFill=0;fontSize=14;" parent="1" source="5Oy_P4s3OPFpKS4PIujk-10" target="5Oy_P4s3OPFpKS4PIujk-12" edge="1">
          <mxGeometry relative="1" as="geometry" />
        </mxCell>
        <mxCell id="5Oy_P4s3OPFpKS4PIujk-10" value="Нормализация img1, img2" style="rounded=0;whiteSpace=wrap;html=1;fontSize=14;" parent="1" vertex="1">
          <mxGeometry x="160" y="390" width="140" height="60" as="geometry" />
        </mxCell>
        <mxCell id="5Oy_P4s3OPFpKS4PIujk-11" style="edgeStyle=orthogonalEdgeStyle;rounded=0;orthogonalLoop=1;jettySize=auto;html=1;exitX=0.5;exitY=1;exitDx=0;exitDy=0;endArrow=none;endFill=0;fontSize=14;" parent="1" source="5Oy_P4s3OPFpKS4PIujk-12" target="5Oy_P4s3OPFpKS4PIujk-13" edge="1">
          <mxGeometry relative="1" as="geometry" />
        </mxCell>
        <mxCell id="5Oy_P4s3OPFpKS4PIujk-12" value="Загрузка модели архитектуры = arch" style="rounded=0;whiteSpace=wrap;html=1;fontSize=14;" parent="1" vertex="1">
          <mxGeometry x="160" y="470" width="140" height="60" as="geometry" />
        </mxCell>
        <mxCell id="Cv6xWdlr0gKG14IWmewM-8" style="edgeStyle=orthogonalEdgeStyle;rounded=0;orthogonalLoop=1;jettySize=auto;html=1;exitX=0.5;exitY=1;exitDx=0;exitDy=0;fontFamily=Helvetica;fontSize=14;fontColor=default;endArrow=none;endFill=0;" parent="1" source="5Oy_P4s3OPFpKS4PIujk-13" target="Cv6xWdlr0gKG14IWmewM-7" edge="1">
          <mxGeometry relative="1" as="geometry" />
        </mxCell>
        <mxCell id="5Oy_P4s3OPFpKS4PIujk-13" value="hr_img&amp;nbsp;= предсказ. модели на img1, img2" style="rounded=0;whiteSpace=wrap;html=1;fontSize=14;" parent="1" vertex="1">
          <mxGeometry x="160" y="552" width="140" height="65" as="geometry" />
        </mxCell>
        <mxCell id="5Oy_P4s3OPFpKS4PIujk-14" value="Конец" style="strokeWidth=1;html=1;shape=mxgraph.flowchart.terminator;whiteSpace=wrap;fontSize=14;" parent="1" vertex="1">
          <mxGeometry x="344" y="460" width="140" height="60" as="geometry" />
        </mxCell>
        <mxCell id="Cv6xWdlr0gKG14IWmewM-1" style="edgeStyle=orthogonalEdgeStyle;rounded=0;orthogonalLoop=1;jettySize=auto;html=1;exitX=0.5;exitY=1;exitDx=0;exitDy=0;endArrow=none;endFill=0;fontSize=14;" parent="1" source="Cv6xWdlr0gKG14IWmewM-2" target="Cv6xWdlr0gKG14IWmewM-3" edge="1">
          <mxGeometry relative="1" as="geometry" />
        </mxCell>
        <mxCell id="Cv6xWdlr0gKG14IWmewM-2" value="Денормализация hr_img" style="rounded=0;whiteSpace=wrap;html=1;fontSize=14;" parent="1" vertex="1">
          <mxGeometry x="344" y="230" width="140" height="60" as="geometry" />
        </mxCell>
        <mxCell id="Cv6xWdlr0gKG14IWmewM-6" style="edgeStyle=orthogonalEdgeStyle;rounded=0;orthogonalLoop=1;jettySize=auto;html=1;exitX=0.5;exitY=1;exitDx=0;exitDy=0;fontFamily=Helvetica;fontSize=14;fontColor=default;endArrow=none;endFill=0;" parent="1" source="Cv6xWdlr0gKG14IWmewM-3" target="5Oy_P4s3OPFpKS4PIujk-14" edge="1">
          <mxGeometry relative="1" as="geometry" />
        </mxCell>
        <mxCell id="Cv6xWdlr0gKG14IWmewM-3" value="Перевод hr_img&amp;nbsp;в RGB" style="rounded=0;whiteSpace=wrap;html=1;fontSize=14;" parent="1" vertex="1">
          <mxGeometry x="344" y="310" width="140" height="60" as="geometry" />
        </mxCell>
        <mxCell id="Cv6xWdlr0gKG14IWmewM-7" value="А" style="ellipse;whiteSpace=wrap;html=1;aspect=fixed;rounded=1;shadow=0;comic=0;strokeColor=default;strokeWidth=1;align=center;verticalAlign=middle;fontFamily=Helvetica;fontSize=14;fontColor=default;fillColor=default;" parent="1" vertex="1">
          <mxGeometry x="210" y="630" width="40" height="40" as="geometry" />
        </mxCell>
        <mxCell id="Cv6xWdlr0gKG14IWmewM-10" style="edgeStyle=orthogonalEdgeStyle;rounded=0;orthogonalLoop=1;jettySize=auto;html=1;exitX=0.5;exitY=1;exitDx=0;exitDy=0;fontFamily=Helvetica;fontSize=14;fontColor=default;endArrow=none;endFill=0;" parent="1" source="Cv6xWdlr0gKG14IWmewM-9" target="Cv6xWdlr0gKG14IWmewM-2" edge="1">
          <mxGeometry relative="1" as="geometry" />
        </mxCell>
        <mxCell id="Cv6xWdlr0gKG14IWmewM-9" value="А" style="ellipse;whiteSpace=wrap;html=1;aspect=fixed;rounded=1;shadow=0;comic=0;strokeColor=default;strokeWidth=1;align=center;verticalAlign=middle;fontFamily=Helvetica;fontSize=14;fontColor=default;fillColor=default;" parent="1" vertex="1">
          <mxGeometry x="394" y="160" width="40" height="40" as="geometry" />
        </mxCell>
        <mxCell id="rGg5PQFU1uSC_g3ymxOz-8" value="Получение img1, img2 по path1, path2" style="shape=document;whiteSpace=wrap;html=1;boundedLbl=1;shadow=0;comic=0;strokeColor=default;strokeWidth=1;align=center;verticalAlign=middle;fontFamily=Helvetica;fontSize=14;fontColor=default;fillColor=default;" parent="1" vertex="1">
          <mxGeometry x="160" y="150" width="140" height="60" as="geometry" />
        </mxCell>
        <mxCell id="rGg5PQFU1uSC_g3ymxOz-10" value="Сохранение hr_img" style="shape=document;whiteSpace=wrap;html=1;boundedLbl=1;shadow=0;comic=0;strokeColor=default;strokeWidth=1;align=center;verticalAlign=middle;fontFamily=Helvetica;fontSize=14;fontColor=default;fillColor=default;" parent="1" vertex="1">
          <mxGeometry x="344" y="390" width="140" height="60" as="geometry" />
        </mxCell>
      </root>
    </mxGraphModel>
  </diagram>
  <diagram id="l452V46k0EkXQ3z4e0pC" name="Страница — 7">
    <mxGraphModel dx="880" dy="468" grid="1" gridSize="10" guides="1" tooltips="1" connect="1" arrows="1" fold="1" page="1" pageScale="1" pageWidth="827" pageHeight="1169" math="0" shadow="0">
      <root>
        <mxCell id="0" />
        <mxCell id="1" parent="0" />
        <mxCell id="3blp8YgF6lgkp8vJm2fe-1" style="edgeStyle=orthogonalEdgeStyle;rounded=0;orthogonalLoop=1;jettySize=auto;html=1;exitX=0.5;exitY=1;exitDx=0;exitDy=0;exitPerimeter=0;fontFamily=Helvetica;fontSize=14;fontColor=default;endArrow=none;endFill=0;" parent="1" source="3blp8YgF6lgkp8vJm2fe-2" edge="1">
          <mxGeometry relative="1" as="geometry">
            <mxPoint x="220" y="290" as="targetPoint" />
          </mxGeometry>
        </mxCell>
        <mxCell id="3blp8YgF6lgkp8vJm2fe-2" value="Начало" style="strokeWidth=1;html=1;shape=mxgraph.flowchart.terminator;whiteSpace=wrap;rounded=0;fontSize=14;" parent="1" vertex="1">
          <mxGeometry x="150" y="110" width="140" height="60" as="geometry" />
        </mxCell>
        <mxCell id="3blp8YgF6lgkp8vJm2fe-3" value="Входные параметры:&lt;div style=&quot;font-size: 14px;&quot;&gt;arch - номер архитектуры&lt;/div&gt;&lt;div style=&quot;font-size: 14px;&quot;&gt;scale - коэфф. масштабирования&lt;/div&gt;" style="strokeWidth=1;html=1;shape=mxgraph.flowchart.annotation_1;align=left;pointerEvents=1;rounded=0;fontSize=14;" parent="1" vertex="1">
          <mxGeometry x="330" y="105" width="70" height="70" as="geometry" />
        </mxCell>
        <mxCell id="3blp8YgF6lgkp8vJm2fe-4" style="edgeStyle=orthogonalEdgeStyle;rounded=0;orthogonalLoop=1;jettySize=auto;html=1;exitX=0;exitY=0.5;exitDx=0;exitDy=0;exitPerimeter=0;entryX=1;entryY=0.5;entryDx=0;entryDy=0;entryPerimeter=0;dashed=1;endArrow=none;endFill=0;fontSize=14;" parent="1" source="3blp8YgF6lgkp8vJm2fe-3" target="3blp8YgF6lgkp8vJm2fe-2" edge="1">
          <mxGeometry relative="1" as="geometry" />
        </mxCell>
        <mxCell id="3blp8YgF6lgkp8vJm2fe-5" style="edgeStyle=orthogonalEdgeStyle;rounded=0;orthogonalLoop=1;jettySize=auto;html=1;exitX=0.5;exitY=1;exitDx=0;exitDy=0;entryX=0.5;entryY=0;entryDx=0;entryDy=0;fontFamily=Helvetica;fontSize=14;fontColor=default;endArrow=none;endFill=0;" parent="1" source="3blp8YgF6lgkp8vJm2fe-6" target="3blp8YgF6lgkp8vJm2fe-11" edge="1">
          <mxGeometry relative="1" as="geometry" />
        </mxCell>
        <mxCell id="3blp8YgF6lgkp8vJm2fe-6" value="LR1 = гаусс. блюр&lt;div style=&quot;font-size: 14px;&quot;&gt;LR2 = гаусс. шум&amp;nbsp;&lt;/div&gt;" style="rounded=0;whiteSpace=wrap;html=1;shadow=0;comic=0;strokeColor=default;strokeWidth=1;align=center;verticalAlign=middle;fontFamily=Helvetica;fontSize=14;fontColor=default;fillColor=default;" parent="1" vertex="1">
          <mxGeometry x="150" y="270" width="140" height="60" as="geometry" />
        </mxCell>
        <mxCell id="NSiLZBJ9CRojgzYVg8l4-1" style="edgeStyle=orthogonalEdgeStyle;rounded=0;orthogonalLoop=1;jettySize=auto;html=1;exitX=0.5;exitY=1;exitDx=0;exitDy=0;exitPerimeter=0;fontFamily=Helvetica;fontSize=14;fontColor=default;endArrow=none;endFill=0;" parent="1" source="3blp8YgF6lgkp8vJm2fe-10" target="h08irUehU2xGBK3FsQP1-12" edge="1">
          <mxGeometry relative="1" as="geometry" />
        </mxCell>
        <mxCell id="3blp8YgF6lgkp8vJm2fe-10" value="Проход &lt;br&gt;LR1, LR2, HR&lt;div style=&quot;font-size: 14px;&quot;&gt;lr1 = LR1[i] ...&lt;/div&gt;" style="strokeWidth=1;html=1;shape=stencil(rZVNb4MwDIZ/Ta5VIFpXjlPWnapeetg5pe6ICgkKWbv9+6W4aHwMxrxKHPBreB9sbIUJWWWqBBZzowpg4pnF8cbaMggbXWgfwnCbYWLJMbxgmKwwVFUJqUftrJxW+xwwU3lnT3DRB39z0CYDh65izfhTeOZ6CZlaY4KJtqbqZFr5YKa0Ce/yDzTjiwfEfN5ijMpAKMCD66jf5W1RYPELmRTNI+0IpG5FDfc30uvfSRGNtKZ0r8+KZsK2hLr4gsc9XLKayduReAm1OlIvm60jVDfCEzIoYwso5F6lpzdn383hx68s1XW5B4kmXdgztIau16upBjQOuTYth8d/O/QaeAeLJcGC39mBUgblb6S5rWBiaIM+mIhaHRkjIY/WwcR8HXWe4zkyNroDg1rFc60WvgA=);whiteSpace=wrap;rounded=0;shadow=0;comic=0;strokeColor=default;align=center;verticalAlign=middle;fontFamily=Helvetica;fontSize=14;fontColor=default;fillColor=default;" parent="1" vertex="1">
          <mxGeometry x="565" y="172.5" width="140" height="60" as="geometry" />
        </mxCell>
        <mxCell id="h08irUehU2xGBK3FsQP1-9" style="edgeStyle=orthogonalEdgeStyle;rounded=0;orthogonalLoop=1;jettySize=auto;html=1;exitX=0.5;exitY=1;exitDx=0;exitDy=0;fontFamily=Helvetica;fontSize=14;fontColor=default;endArrow=none;endFill=0;" parent="1" source="3blp8YgF6lgkp8vJm2fe-11" target="h08irUehU2xGBK3FsQP1-7" edge="1">
          <mxGeometry relative="1" as="geometry" />
        </mxCell>
        <mxCell id="3blp8YgF6lgkp8vJm2fe-11" value="Бикуб. увел. разр. LR1, LR2 в scale раз" style="rounded=0;whiteSpace=wrap;html=1;shadow=0;comic=0;strokeColor=default;strokeWidth=1;align=center;verticalAlign=middle;fontFamily=Helvetica;fontSize=14;fontColor=default;fillColor=default;" parent="1" vertex="1">
          <mxGeometry x="150" y="350" width="140" height="60" as="geometry" />
        </mxCell>
        <mxCell id="G0fwN2bov3p_Uj7GXEP2-1" style="edgeStyle=orthogonalEdgeStyle;rounded=0;orthogonalLoop=1;jettySize=auto;html=1;exitX=0.5;exitY=0;exitDx=0;exitDy=0;exitPerimeter=0;endArrow=none;endFill=0;fontSize=14;" parent="1" source="3blp8YgF6lgkp8vJm2fe-25" target="0e5OCz1sHUv6R5m2DOdt-6" edge="1">
          <mxGeometry relative="1" as="geometry" />
        </mxCell>
        <mxCell id="3blp8YgF6lgkp8vJm2fe-25" value="" style="strokeWidth=1;html=1;shape=stencil(rZVNb4MwDIZ/Ta5VIFpXjlPWnapeetg5pe6ICgkKWbv9+6W4aHwMxrxKHPBreB9sbIUJWWWqBBZzowpg4pnF8cbaMggbXWgfwnCbYWLJMbxgmKwwVFUJqUftrJxW+xwwU3lnT3DRB39z0CYDh65izfhTeOZ6CZlaY4KJtqbqZFr5YKa0Ce/yDzTjiwfEfN5ijMpAKMCD66jf5W1RYPELmRTNI+0IpG5FDfc30uvfSRGNtKZ0r8+KZsK2hLr4gsc9XLKayduReAm1OlIvm60jVDfCEzIoYwso5F6lpzdn383hx68s1XW5B4kmXdgztIau16upBjQOuTYth8d/O/QaeAeLJcGC39mBUgblb6S5rWBiaIM+mIhaHRkjIY/WwcR8HXWe4zkyNroDg1rFc60WvgA=);whiteSpace=wrap;rounded=0;shadow=0;comic=0;strokeColor=default;align=center;verticalAlign=middle;fontFamily=Helvetica;fontSize=14;fontColor=default;fillColor=default;rotation=-180;" parent="1" vertex="1">
          <mxGeometry x="565" y="570" width="140" height="60" as="geometry" />
        </mxCell>
        <mxCell id="3blp8YgF6lgkp8vJm2fe-26" value="i +=1" style="text;html=1;align=center;verticalAlign=middle;whiteSpace=wrap;rounded=0;fontFamily=Helvetica;fontSize=14;fontColor=default;" parent="1" vertex="1">
          <mxGeometry x="600.5" y="584.5" width="69" height="31" as="geometry" />
        </mxCell>
        <mxCell id="3blp8YgF6lgkp8vJm2fe-31" value="Конец" style="strokeWidth=1;html=1;shape=mxgraph.flowchart.terminator;whiteSpace=wrap;rounded=0;fontSize=14;" parent="1" vertex="1">
          <mxGeometry x="570" y="730" width="140" height="60" as="geometry" />
        </mxCell>
        <mxCell id="h08irUehU2xGBK3FsQP1-5" style="edgeStyle=orthogonalEdgeStyle;rounded=0;orthogonalLoop=1;jettySize=auto;html=1;exitX=0;exitY=0.5;exitDx=0;exitDy=0;exitPerimeter=0;entryX=1;entryY=0.5;entryDx=0;entryDy=0;fontFamily=Helvetica;fontSize=14;fontColor=default;endArrow=none;endFill=0;startArrow=none;startFill=0;dashed=1;" parent="1" source="h08irUehU2xGBK3FsQP1-3" target="3blp8YgF6lgkp8vJm2fe-6" edge="1">
          <mxGeometry relative="1" as="geometry" />
        </mxCell>
        <mxCell id="h08irUehU2xGBK3FsQP1-3" value="Тестовый набор в &lt;br&gt;низком разрешении, &lt;br style=&quot;font-size: 14px;&quot;&gt;но хорошем&amp;nbsp;качестве" style="strokeWidth=1;html=1;shape=mxgraph.flowchart.annotation_1;align=left;pointerEvents=1;rounded=0;fontSize=14;" parent="1" vertex="1">
          <mxGeometry x="330" y="265" width="70" height="70" as="geometry" />
        </mxCell>
        <mxCell id="h08irUehU2xGBK3FsQP1-6" style="edgeStyle=orthogonalEdgeStyle;rounded=0;orthogonalLoop=1;jettySize=auto;html=1;exitX=0.5;exitY=1;exitDx=0;exitDy=0;entryX=0.5;entryY=0;entryDx=0;entryDy=0;fontFamily=Helvetica;fontSize=14;fontColor=default;endArrow=none;endFill=0;" parent="1" source="h08irUehU2xGBK3FsQP1-7" target="h08irUehU2xGBK3FsQP1-8" edge="1">
          <mxGeometry relative="1" as="geometry" />
        </mxCell>
        <mxCell id="h08irUehU2xGBK3FsQP1-7" value="Перевод LR1, LR2 в YCbCr" style="rounded=0;whiteSpace=wrap;html=1;shadow=0;comic=0;strokeColor=default;strokeWidth=1;align=center;verticalAlign=middle;fontFamily=Helvetica;fontSize=14;fontColor=default;fillColor=default;" parent="1" vertex="1">
          <mxGeometry x="150" y="430" width="140" height="60" as="geometry" />
        </mxCell>
        <mxCell id="0e5OCz1sHUv6R5m2DOdt-12" style="edgeStyle=orthogonalEdgeStyle;rounded=0;orthogonalLoop=1;jettySize=auto;html=1;exitX=0.5;exitY=1;exitDx=0;exitDy=0;fontFamily=Helvetica;fontSize=14;fontColor=default;endArrow=none;endFill=0;" parent="1" source="h08irUehU2xGBK3FsQP1-8" target="0e5OCz1sHUv6R5m2DOdt-10" edge="1">
          <mxGeometry relative="1" as="geometry" />
        </mxCell>
        <mxCell id="h08irUehU2xGBK3FsQP1-8" value="Нормализация LR1, LR2" style="rounded=0;whiteSpace=wrap;html=1;shadow=0;comic=0;strokeColor=default;strokeWidth=1;align=center;verticalAlign=middle;fontFamily=Helvetica;fontSize=14;fontColor=default;fillColor=default;" parent="1" vertex="1">
          <mxGeometry x="150" y="510" width="140" height="60" as="geometry" />
        </mxCell>
        <mxCell id="h08irUehU2xGBK3FsQP1-11" style="edgeStyle=orthogonalEdgeStyle;rounded=0;orthogonalLoop=1;jettySize=auto;html=1;exitX=0.5;exitY=1;exitDx=0;exitDy=0;entryX=0.5;entryY=0;entryDx=0;entryDy=0;entryPerimeter=0;fontFamily=Helvetica;fontSize=14;fontColor=default;endArrow=none;endFill=0;" parent="1" source="0e5OCz1sHUv6R5m2DOdt-13" target="3blp8YgF6lgkp8vJm2fe-10" edge="1">
          <mxGeometry relative="1" as="geometry">
            <mxPoint x="611" y="200" as="sourcePoint" />
          </mxGeometry>
        </mxCell>
        <mxCell id="NSiLZBJ9CRojgzYVg8l4-3" style="edgeStyle=orthogonalEdgeStyle;rounded=0;orthogonalLoop=1;jettySize=auto;html=1;exitX=0.5;exitY=1;exitDx=0;exitDy=0;fontFamily=Helvetica;fontSize=14;fontColor=default;endArrow=none;endFill=0;" parent="1" source="h08irUehU2xGBK3FsQP1-12" target="NSiLZBJ9CRojgzYVg8l4-2" edge="1">
          <mxGeometry relative="1" as="geometry" />
        </mxCell>
        <mxCell id="h08irUehU2xGBK3FsQP1-12" value="Предсказание hr_my по lr1 и lr2" style="rounded=0;whiteSpace=wrap;html=1;shadow=0;comic=0;strokeColor=default;strokeWidth=1;align=center;verticalAlign=middle;fontFamily=Helvetica;fontSize=14;fontColor=default;fillColor=default;" parent="1" vertex="1">
          <mxGeometry x="565" y="248" width="140" height="60" as="geometry" />
        </mxCell>
        <mxCell id="0e5OCz1sHUv6R5m2DOdt-1" style="edgeStyle=orthogonalEdgeStyle;rounded=0;orthogonalLoop=1;jettySize=auto;html=1;exitX=0.5;exitY=1;exitDx=0;exitDy=0;fontFamily=Helvetica;fontSize=14;fontColor=default;endArrow=none;endFill=0;" parent="1" source="NSiLZBJ9CRojgzYVg8l4-2" target="NSiLZBJ9CRojgzYVg8l4-4" edge="1">
          <mxGeometry relative="1" as="geometry" />
        </mxCell>
        <mxCell id="NSiLZBJ9CRojgzYVg8l4-2" value="MSE_b1 += &lt;br&gt;MSE(hr, lr1)&lt;br style=&quot;font-size: 14px;&quot;&gt;&lt;span style=&quot;background-color: initial; font-size: 14px;&quot;&gt;PSNR_b1, SSIM_b1 ...&lt;/span&gt;" style="rounded=0;whiteSpace=wrap;html=1;shadow=0;comic=0;strokeColor=default;strokeWidth=1;align=center;verticalAlign=middle;fontFamily=Helvetica;fontSize=14;fontColor=default;fillColor=default;" parent="1" vertex="1">
          <mxGeometry x="560" y="328" width="150" height="60" as="geometry" />
        </mxCell>
        <mxCell id="0e5OCz1sHUv6R5m2DOdt-2" style="edgeStyle=orthogonalEdgeStyle;rounded=0;orthogonalLoop=1;jettySize=auto;html=1;exitX=0.5;exitY=1;exitDx=0;exitDy=0;fontFamily=Helvetica;fontSize=14;fontColor=default;endArrow=none;endFill=0;" parent="1" source="NSiLZBJ9CRojgzYVg8l4-4" target="NSiLZBJ9CRojgzYVg8l4-5" edge="1">
          <mxGeometry relative="1" as="geometry" />
        </mxCell>
        <mxCell id="NSiLZBJ9CRojgzYVg8l4-4" value="MSE_b2 += &lt;br&gt;MSE(hr, lr2)&lt;br&gt;&lt;span style=&quot;background-color: initial;&quot;&gt;PSNR_b2, SSIM_b2 ...&lt;/span&gt;" style="rounded=0;whiteSpace=wrap;html=1;shadow=0;comic=0;strokeColor=default;strokeWidth=1;align=center;verticalAlign=middle;fontFamily=Helvetica;fontSize=14;fontColor=default;fillColor=default;" parent="1" vertex="1">
          <mxGeometry x="560" y="408" width="150" height="60" as="geometry" />
        </mxCell>
        <mxCell id="0e5OCz1sHUv6R5m2DOdt-3" style="edgeStyle=orthogonalEdgeStyle;rounded=0;orthogonalLoop=1;jettySize=auto;html=1;exitX=0.5;exitY=1;exitDx=0;exitDy=0;fontFamily=Helvetica;fontSize=14;fontColor=default;endArrow=none;endFill=0;" parent="1" source="NSiLZBJ9CRojgzYVg8l4-5" target="3blp8YgF6lgkp8vJm2fe-25" edge="1">
          <mxGeometry relative="1" as="geometry" />
        </mxCell>
        <mxCell id="NSiLZBJ9CRojgzYVg8l4-5" value="MSE += &lt;br&gt;MSE(hr, hr_my)&lt;div style=&quot;font-size: 14px;&quot;&gt;PSNR,&amp;nbsp;&lt;span style=&quot;background-color: initial;&quot;&gt;SSIM ...&lt;/span&gt;&lt;/div&gt;" style="rounded=0;whiteSpace=wrap;html=1;shadow=0;comic=0;strokeColor=default;strokeWidth=1;align=center;verticalAlign=middle;fontFamily=Helvetica;fontSize=14;fontColor=default;fillColor=default;" parent="1" vertex="1">
          <mxGeometry x="560" y="488" width="150" height="60" as="geometry" />
        </mxCell>
        <mxCell id="0e5OCz1sHUv6R5m2DOdt-6" value="Суммы ошибок / &lt;br&gt;кол-во изобр. в тестовом наборе" style="rounded=0;whiteSpace=wrap;html=1;shadow=0;comic=0;strokeColor=default;strokeWidth=1;align=center;verticalAlign=middle;fontFamily=Helvetica;fontSize=14;fontColor=default;fillColor=default;" parent="1" vertex="1">
          <mxGeometry x="565" y="650" width="140" height="60" as="geometry" />
        </mxCell>
        <mxCell id="0e5OCz1sHUv6R5m2DOdt-9" style="edgeStyle=orthogonalEdgeStyle;rounded=0;orthogonalLoop=1;jettySize=auto;html=1;exitX=0.5;exitY=1;exitDx=0;exitDy=0;entryX=0.5;entryY=0;entryDx=0;entryDy=0;entryPerimeter=0;fontFamily=Helvetica;fontSize=14;fontColor=default;endArrow=none;endFill=0;" parent="1" source="0e5OCz1sHUv6R5m2DOdt-6" target="3blp8YgF6lgkp8vJm2fe-31" edge="1">
          <mxGeometry relative="1" as="geometry" />
        </mxCell>
        <mxCell id="0e5OCz1sHUv6R5m2DOdt-10" value="А" style="ellipse;whiteSpace=wrap;html=1;aspect=fixed;rounded=0;shadow=0;comic=0;strokeColor=default;strokeWidth=1;align=center;verticalAlign=middle;fontFamily=Helvetica;fontSize=14;fontColor=default;fillColor=default;" parent="1" vertex="1">
          <mxGeometry x="200" y="590" width="40" height="40" as="geometry" />
        </mxCell>
        <mxCell id="0e5OCz1sHUv6R5m2DOdt-13" value="А" style="ellipse;whiteSpace=wrap;html=1;aspect=fixed;rounded=0;shadow=0;comic=0;strokeColor=default;strokeWidth=1;align=center;verticalAlign=middle;fontFamily=Helvetica;fontSize=14;fontColor=default;fillColor=default;" parent="1" vertex="1">
          <mxGeometry x="615" y="120" width="40" height="40" as="geometry" />
        </mxCell>
        <mxCell id="0e5OCz1sHUv6R5m2DOdt-14" value="Бикубическая &lt;br style=&quot;font-size: 14px;&quot;&gt;интерполяция" style="strokeWidth=1;html=1;shape=mxgraph.flowchart.annotation_1;align=left;pointerEvents=1;rounded=0;fontSize=14;" parent="1" vertex="1">
          <mxGeometry x="735" y="328" width="70" height="70" as="geometry" />
        </mxCell>
        <mxCell id="0e5OCz1sHUv6R5m2DOdt-15" style="edgeStyle=orthogonalEdgeStyle;rounded=0;orthogonalLoop=1;jettySize=auto;html=1;exitX=1;exitY=0.5;exitDx=0;exitDy=0;entryX=0;entryY=0.5;entryDx=0;entryDy=0;entryPerimeter=0;fontFamily=Helvetica;fontSize=14;fontColor=default;endArrow=none;endFill=0;dashed=1;jumpStyle=arc;" parent="1" source="NSiLZBJ9CRojgzYVg8l4-2" target="0e5OCz1sHUv6R5m2DOdt-14" edge="1">
          <mxGeometry relative="1" as="geometry" />
        </mxCell>
        <mxCell id="BASSDZRQHFD2t9jIz21i-1" value="Загрузка тестовых наборов LR, HR" style="shape=document;whiteSpace=wrap;html=1;boundedLbl=1;shadow=0;comic=0;strokeColor=default;strokeWidth=1;align=center;verticalAlign=middle;fontFamily=Helvetica;fontSize=14;fontColor=default;fillColor=default;" parent="1" vertex="1">
          <mxGeometry x="150" y="188" width="140" height="60" as="geometry" />
        </mxCell>
      </root>
    </mxGraphModel>
  </diagram>
  <diagram id="rTj_ylxn0ZOrl3LAvQZR" name="Страница — 8">
    <mxGraphModel dx="1707" dy="468" grid="1" gridSize="10" guides="1" tooltips="1" connect="1" arrows="1" fold="1" page="1" pageScale="1" pageWidth="827" pageHeight="1169" math="0" shadow="0">
      <root>
        <mxCell id="0" />
        <mxCell id="1" parent="0" />
        <mxCell id="ScfG9RyWlmSJGFxGhYLk-24" style="edgeStyle=orthogonalEdgeStyle;rounded=0;orthogonalLoop=1;jettySize=auto;html=1;exitX=1;exitY=0.25;exitDx=0;exitDy=0;entryX=0.25;entryY=1;entryDx=0;entryDy=0;dashed=1;" parent="1" source="y3dfUGJKQjPofjh_kF6Q-44" target="y3dfUGJKQjPofjh_kF6Q-38" edge="1">
          <mxGeometry relative="1" as="geometry" />
        </mxCell>
        <mxCell id="ScfG9RyWlmSJGFxGhYLk-25" style="edgeStyle=orthogonalEdgeStyle;rounded=0;orthogonalLoop=1;jettySize=auto;html=1;exitX=0.5;exitY=1;exitDx=0;exitDy=0;entryX=1;entryY=0.75;entryDx=0;entryDy=0;" parent="1" source="y3dfUGJKQjPofjh_kF6Q-38" target="y3dfUGJKQjPofjh_kF6Q-44" edge="1">
          <mxGeometry relative="1" as="geometry" />
        </mxCell>
        <mxCell id="ScfG9RyWlmSJGFxGhYLk-6" style="edgeStyle=orthogonalEdgeStyle;rounded=0;orthogonalLoop=1;jettySize=auto;html=1;exitX=0;exitY=0;exitDx=0;exitDy=15;exitPerimeter=0;entryX=1;entryY=1;entryDx=0;entryDy=0;dashed=1;" parent="1" source="y3dfUGJKQjPofjh_kF6Q-44" target="y3dfUGJKQjPofjh_kF6Q-27" edge="1">
          <mxGeometry relative="1" as="geometry" />
        </mxCell>
        <mxCell id="ScfG9RyWlmSJGFxGhYLk-8" style="edgeStyle=orthogonalEdgeStyle;rounded=0;orthogonalLoop=1;jettySize=auto;html=1;exitX=0.75;exitY=1;exitDx=0;exitDy=0;entryX=0;entryY=0;entryDx=0;entryDy=35;entryPerimeter=0;" parent="1" source="y3dfUGJKQjPofjh_kF6Q-27" target="y3dfUGJKQjPofjh_kF6Q-44" edge="1">
          <mxGeometry relative="1" as="geometry" />
        </mxCell>
        <mxCell id="ScfG9RyWlmSJGFxGhYLk-33" style="rounded=0;orthogonalLoop=1;jettySize=auto;html=1;exitX=0;exitY=0;exitDx=0;exitDy=15;exitPerimeter=0;entryX=1;entryY=0.25;entryDx=0;entryDy=0;" parent="1" source="y3dfUGJKQjPofjh_kF6Q-5" target="y3dfUGJKQjPofjh_kF6Q-27" edge="1">
          <mxGeometry relative="1" as="geometry" />
        </mxCell>
        <mxCell id="zJKt9iD3TO157ecE6hQ--13" style="edgeStyle=orthogonalEdgeStyle;rounded=0;orthogonalLoop=1;jettySize=auto;html=1;exitX=0.75;exitY=0;exitDx=0;exitDy=0;entryX=1;entryY=1;entryDx=0;entryDy=0;dashed=1;" parent="1" source="y3dfUGJKQjPofjh_kF6Q-5" target="zJKt9iD3TO157ecE6hQ--7" edge="1">
          <mxGeometry relative="1" as="geometry">
            <Array as="points">
              <mxPoint x="-425" y="180" />
              <mxPoint x="-300" y="180" />
            </Array>
          </mxGeometry>
        </mxCell>
        <mxCell id="y3dfUGJKQjPofjh_kF6Q-5" value="Обучение модели" style="shape=module;align=left;spacingLeft=20;align=center;verticalAlign=top;whiteSpace=wrap;html=1;shadow=0;comic=0;strokeColor=default;strokeWidth=1;fontFamily=Helvetica;fontSize=12;fontColor=default;fillColor=default;" parent="1" vertex="1">
          <mxGeometry x="-500" y="240" width="100" height="50" as="geometry" />
        </mxCell>
        <mxCell id="ScfG9RyWlmSJGFxGhYLk-19" style="edgeStyle=orthogonalEdgeStyle;rounded=0;orthogonalLoop=1;jettySize=auto;html=1;exitX=0;exitY=0;exitDx=0;exitDy=15;exitPerimeter=0;jumpStyle=arc;dashed=1;" parent="1" source="y3dfUGJKQjPofjh_kF6Q-6" target="y3dfUGJKQjPofjh_kF6Q-5" edge="1">
          <mxGeometry relative="1" as="geometry" />
        </mxCell>
        <mxCell id="ScfG9RyWlmSJGFxGhYLk-28" style="edgeStyle=orthogonalEdgeStyle;rounded=0;orthogonalLoop=1;jettySize=auto;html=1;exitX=0.5;exitY=1;exitDx=0;exitDy=0;entryX=0.5;entryY=0;entryDx=0;entryDy=0;" parent="1" source="y3dfUGJKQjPofjh_kF6Q-6" target="y3dfUGJKQjPofjh_kF6Q-7" edge="1">
          <mxGeometry relative="1" as="geometry" />
        </mxCell>
        <mxCell id="zJKt9iD3TO157ecE6hQ--5" style="edgeStyle=orthogonalEdgeStyle;rounded=0;orthogonalLoop=1;jettySize=auto;html=1;exitX=0.5;exitY=0;exitDx=0;exitDy=0;entryX=0.75;entryY=1;entryDx=0;entryDy=0;dashed=1;" parent="1" source="y3dfUGJKQjPofjh_kF6Q-6" target="y3dfUGJKQjPofjh_kF6Q-38" edge="1">
          <mxGeometry relative="1" as="geometry">
            <Array as="points">
              <mxPoint x="-160" y="390" />
              <mxPoint x="-29" y="390" />
            </Array>
          </mxGeometry>
        </mxCell>
        <mxCell id="y3dfUGJKQjPofjh_kF6Q-6" value="Модель" style="shape=module;align=left;spacingLeft=20;align=center;verticalAlign=top;whiteSpace=wrap;html=1;shadow=0;comic=0;strokeColor=default;strokeWidth=1;fontFamily=Helvetica;fontSize=12;fontColor=default;fillColor=default;" parent="1" vertex="1">
          <mxGeometry x="-210" y="480" width="100" height="50" as="geometry" />
        </mxCell>
        <mxCell id="ScfG9RyWlmSJGFxGhYLk-30" style="edgeStyle=orthogonalEdgeStyle;rounded=0;orthogonalLoop=1;jettySize=auto;html=1;exitX=0.75;exitY=0;exitDx=0;exitDy=0;entryX=0.75;entryY=1;entryDx=0;entryDy=0;dashed=1;" parent="1" source="y3dfUGJKQjPofjh_kF6Q-7" target="y3dfUGJKQjPofjh_kF6Q-6" edge="1">
          <mxGeometry relative="1" as="geometry" />
        </mxCell>
        <mxCell id="y3dfUGJKQjPofjh_kF6Q-7" value="Архитектура модели" style="shape=module;align=left;spacingLeft=20;align=center;verticalAlign=top;whiteSpace=wrap;html=1;shadow=0;comic=0;strokeColor=default;strokeWidth=1;fontFamily=Helvetica;fontSize=12;fontColor=default;fillColor=default;" parent="1" vertex="1">
          <mxGeometry x="-210" y="580" width="100" height="50" as="geometry" />
        </mxCell>
        <mxCell id="y3dfUGJKQjPofjh_kF6Q-14" value="Функция обучения" style="text;html=1;align=center;verticalAlign=middle;whiteSpace=wrap;rounded=0;fontFamily=Helvetica;fontSize=12;fontColor=default;" parent="1" vertex="1">
          <mxGeometry x="-550" y="400" width="83" height="30" as="geometry" />
        </mxCell>
        <mxCell id="y3dfUGJKQjPofjh_kF6Q-16" value="Обученная модель" style="text;html=1;align=center;verticalAlign=middle;whiteSpace=wrap;rounded=0;fontFamily=Helvetica;fontSize=12;fontColor=default;" parent="1" vertex="1">
          <mxGeometry x="-440" y="400" width="70" height="30" as="geometry" />
        </mxCell>
        <mxCell id="ScfG9RyWlmSJGFxGhYLk-22" style="edgeStyle=orthogonalEdgeStyle;rounded=0;orthogonalLoop=1;jettySize=auto;html=1;exitX=0.5;exitY=1;exitDx=0;exitDy=0;entryX=0.5;entryY=0;entryDx=0;entryDy=0;" parent="1" source="y3dfUGJKQjPofjh_kF6Q-17" target="y3dfUGJKQjPofjh_kF6Q-44" edge="1">
          <mxGeometry relative="1" as="geometry" />
        </mxCell>
        <mxCell id="zJKt9iD3TO157ecE6hQ--3" style="edgeStyle=orthogonalEdgeStyle;rounded=0;orthogonalLoop=1;jettySize=auto;html=1;exitX=1;exitY=0.25;exitDx=0;exitDy=0;entryX=0.75;entryY=0;entryDx=0;entryDy=0;jumpStyle=arc;" parent="1" source="y3dfUGJKQjPofjh_kF6Q-17" target="y3dfUGJKQjPofjh_kF6Q-6" edge="1">
          <mxGeometry relative="1" as="geometry" />
        </mxCell>
        <mxCell id="zJKt9iD3TO157ecE6hQ--15" style="edgeStyle=orthogonalEdgeStyle;rounded=0;orthogonalLoop=1;jettySize=auto;html=1;exitX=0.5;exitY=0;exitDx=0;exitDy=0;entryX=1;entryY=1;entryDx=0;entryDy=0;dashed=1;" parent="1" source="y3dfUGJKQjPofjh_kF6Q-17" target="zJKt9iD3TO157ecE6hQ--7" edge="1">
          <mxGeometry relative="1" as="geometry">
            <Array as="points">
              <mxPoint x="-270" y="180" />
              <mxPoint x="-300" y="180" />
            </Array>
          </mxGeometry>
        </mxCell>
        <mxCell id="y3dfUGJKQjPofjh_kF6Q-17" value="Демонстрация работы" style="shape=module;align=left;spacingLeft=20;align=center;verticalAlign=top;whiteSpace=wrap;html=1;shadow=0;comic=0;strokeColor=default;strokeWidth=1;fontFamily=Helvetica;fontSize=12;fontColor=default;fillColor=default;" parent="1" vertex="1">
          <mxGeometry x="-320" y="240" width="100" height="50" as="geometry" />
        </mxCell>
        <mxCell id="y3dfUGJKQjPofjh_kF6Q-27" value="Работа с датасетами" style="shape=module;align=left;spacingLeft=20;align=center;verticalAlign=top;whiteSpace=wrap;html=1;shadow=0;comic=0;strokeColor=default;strokeWidth=1;fontFamily=Helvetica;fontSize=12;fontColor=default;fillColor=default;" parent="1" vertex="1">
          <mxGeometry x="-710" y="243" width="100" height="50" as="geometry" />
        </mxCell>
        <mxCell id="y3dfUGJKQjPofjh_kF6Q-29" value="Функция генерации данных" style="text;html=1;align=center;verticalAlign=middle;whiteSpace=wrap;rounded=0;fontFamily=Helvetica;fontSize=12;fontColor=default;" parent="1" vertex="1">
          <mxGeometry x="-603.5" y="220" width="97" height="30" as="geometry" />
        </mxCell>
        <mxCell id="y3dfUGJKQjPofjh_kF6Q-30" value="Подготовленные данные" style="text;html=1;align=center;verticalAlign=middle;whiteSpace=wrap;rounded=0;fontFamily=Helvetica;fontSize=12;fontColor=default;" parent="1" vertex="1">
          <mxGeometry x="-590" y="280" width="70" height="30" as="geometry" />
        </mxCell>
        <mxCell id="zJKt9iD3TO157ecE6hQ--6" style="edgeStyle=orthogonalEdgeStyle;rounded=0;orthogonalLoop=1;jettySize=auto;html=1;exitX=1;exitY=1;exitDx=0;exitDy=0;entryX=0.75;entryY=0;entryDx=0;entryDy=0;" parent="1" source="y3dfUGJKQjPofjh_kF6Q-38" target="y3dfUGJKQjPofjh_kF6Q-6" edge="1">
          <mxGeometry relative="1" as="geometry">
            <Array as="points">
              <mxPoint x="-4" y="410" />
              <mxPoint x="-135" y="410" />
            </Array>
          </mxGeometry>
        </mxCell>
        <mxCell id="zJKt9iD3TO157ecE6hQ--16" style="edgeStyle=orthogonalEdgeStyle;rounded=0;orthogonalLoop=1;jettySize=auto;html=1;exitX=0.5;exitY=0;exitDx=0;exitDy=0;entryX=1;entryY=1;entryDx=0;entryDy=0;dashed=1;jumpStyle=arc;" parent="1" source="y3dfUGJKQjPofjh_kF6Q-38" target="zJKt9iD3TO157ecE6hQ--7" edge="1">
          <mxGeometry relative="1" as="geometry">
            <Array as="points">
              <mxPoint x="-54" y="180" />
              <mxPoint x="-300" y="180" />
            </Array>
          </mxGeometry>
        </mxCell>
        <mxCell id="y3dfUGJKQjPofjh_kF6Q-38" value="Тестирование модели&amp;nbsp;" style="shape=module;align=left;spacingLeft=20;align=center;verticalAlign=top;whiteSpace=wrap;html=1;shadow=0;comic=0;strokeColor=default;strokeWidth=1;fontFamily=Helvetica;fontSize=12;fontColor=default;fillColor=default;" parent="1" vertex="1">
          <mxGeometry x="-104" y="240" width="100" height="50" as="geometry" />
        </mxCell>
        <mxCell id="y3dfUGJKQjPofjh_kF6Q-41" value="Функция загрузки модели" style="text;html=1;align=center;verticalAlign=middle;whiteSpace=wrap;rounded=0;fontFamily=Helvetica;fontSize=12;fontColor=default;" parent="1" vertex="1">
          <mxGeometry x="-132" y="431" width="70" height="30" as="geometry" />
        </mxCell>
        <mxCell id="y3dfUGJKQjPofjh_kF6Q-43" value="Загруженная модель" style="text;html=1;align=center;verticalAlign=middle;whiteSpace=wrap;rounded=0;fontFamily=Helvetica;fontSize=12;fontColor=default;" parent="1" vertex="1">
          <mxGeometry x="-231" y="430" width="70" height="30" as="geometry" />
        </mxCell>
        <mxCell id="ScfG9RyWlmSJGFxGhYLk-10" style="edgeStyle=orthogonalEdgeStyle;rounded=0;orthogonalLoop=1;jettySize=auto;html=1;exitX=0.25;exitY=0;exitDx=0;exitDy=0;entryX=1;entryY=1;entryDx=0;entryDy=0;dashed=1;" parent="1" source="y3dfUGJKQjPofjh_kF6Q-44" target="y3dfUGJKQjPofjh_kF6Q-5" edge="1">
          <mxGeometry relative="1" as="geometry" />
        </mxCell>
        <mxCell id="ScfG9RyWlmSJGFxGhYLk-23" style="edgeStyle=orthogonalEdgeStyle;rounded=0;orthogonalLoop=1;jettySize=auto;html=1;exitX=0.75;exitY=0;exitDx=0;exitDy=0;entryX=0.75;entryY=1;entryDx=0;entryDy=0;dashed=1;" parent="1" source="y3dfUGJKQjPofjh_kF6Q-44" target="y3dfUGJKQjPofjh_kF6Q-17" edge="1">
          <mxGeometry relative="1" as="geometry" />
        </mxCell>
        <mxCell id="y3dfUGJKQjPofjh_kF6Q-44" value="Утилиты" style="shape=module;align=left;spacingLeft=20;align=center;verticalAlign=top;whiteSpace=wrap;html=1;shadow=0;comic=0;strokeColor=default;strokeWidth=1;fontFamily=Helvetica;fontSize=12;fontColor=default;fillColor=default;" parent="1" vertex="1">
          <mxGeometry x="-320" y="330" width="100" height="50" as="geometry" />
        </mxCell>
        <mxCell id="ScfG9RyWlmSJGFxGhYLk-13" style="edgeStyle=orthogonalEdgeStyle;rounded=0;orthogonalLoop=1;jettySize=auto;html=1;exitX=0.75;exitY=1;exitDx=0;exitDy=0;entryX=0;entryY=0;entryDx=10;entryDy=0;entryPerimeter=0;" parent="1" source="y3dfUGJKQjPofjh_kF6Q-5" target="y3dfUGJKQjPofjh_kF6Q-44" edge="1">
          <mxGeometry relative="1" as="geometry">
            <Array as="points">
              <mxPoint x="-425" y="330" />
            </Array>
          </mxGeometry>
        </mxCell>
        <mxCell id="ScfG9RyWlmSJGFxGhYLk-18" style="edgeStyle=orthogonalEdgeStyle;rounded=0;orthogonalLoop=1;jettySize=auto;html=1;exitX=0.25;exitY=1;exitDx=0;exitDy=0;entryX=0;entryY=0;entryDx=0;entryDy=35;entryPerimeter=0;jumpStyle=arc;" parent="1" source="y3dfUGJKQjPofjh_kF6Q-5" target="y3dfUGJKQjPofjh_kF6Q-6" edge="1">
          <mxGeometry relative="1" as="geometry" />
        </mxCell>
        <mxCell id="ScfG9RyWlmSJGFxGhYLk-31" value="Запрос архитектуры модели" style="text;html=1;align=center;verticalAlign=middle;whiteSpace=wrap;rounded=0;fontFamily=Helvetica;fontSize=12;fontColor=default;" parent="1" vertex="1">
          <mxGeometry x="-250" y="545" width="90" height="20" as="geometry" />
        </mxCell>
        <mxCell id="ScfG9RyWlmSJGFxGhYLk-32" value="Архитектура модели" style="text;html=1;align=center;verticalAlign=middle;whiteSpace=wrap;rounded=0;fontFamily=Helvetica;fontSize=12;fontColor=default;" parent="1" vertex="1">
          <mxGeometry x="-140" y="540" width="110" height="30" as="geometry" />
        </mxCell>
        <mxCell id="ScfG9RyWlmSJGFxGhYLk-34" style="rounded=0;orthogonalLoop=1;jettySize=auto;html=1;entryX=0;entryY=0;entryDx=0;entryDy=35;entryPerimeter=0;dashed=1;exitX=1;exitY=0.64;exitDx=0;exitDy=0;exitPerimeter=0;" parent="1" source="y3dfUGJKQjPofjh_kF6Q-27" target="y3dfUGJKQjPofjh_kF6Q-5" edge="1">
          <mxGeometry relative="1" as="geometry">
            <mxPoint x="-580" y="275" as="sourcePoint" />
          </mxGeometry>
        </mxCell>
        <mxCell id="zJKt9iD3TO157ecE6hQ--4" style="edgeStyle=orthogonalEdgeStyle;rounded=0;orthogonalLoop=1;jettySize=auto;html=1;exitX=0.5;exitY=0;exitDx=0;exitDy=0;entryX=1.01;entryY=0.64;entryDx=0;entryDy=0;entryPerimeter=0;dashed=1;jumpStyle=arc;" parent="1" source="y3dfUGJKQjPofjh_kF6Q-6" target="y3dfUGJKQjPofjh_kF6Q-17" edge="1">
          <mxGeometry relative="1" as="geometry" />
        </mxCell>
        <mxCell id="zJKt9iD3TO157ecE6hQ--9" style="edgeStyle=orthogonalEdgeStyle;rounded=0;orthogonalLoop=1;jettySize=auto;html=1;exitX=0;exitY=1;exitDx=10;exitDy=0;entryX=0.5;entryY=0;entryDx=0;entryDy=0;exitPerimeter=0;" parent="1" source="zJKt9iD3TO157ecE6hQ--7" target="y3dfUGJKQjPofjh_kF6Q-5" edge="1">
          <mxGeometry relative="1" as="geometry" />
        </mxCell>
        <mxCell id="zJKt9iD3TO157ecE6hQ--10" style="edgeStyle=orthogonalEdgeStyle;rounded=0;orthogonalLoop=1;jettySize=auto;html=1;exitX=0;exitY=1;exitDx=10;exitDy=0;exitPerimeter=0;entryX=0.75;entryY=0;entryDx=0;entryDy=0;jumpStyle=arc;" parent="1" source="zJKt9iD3TO157ecE6hQ--7" target="y3dfUGJKQjPofjh_kF6Q-17" edge="1">
          <mxGeometry relative="1" as="geometry" />
        </mxCell>
        <mxCell id="zJKt9iD3TO157ecE6hQ--11" style="edgeStyle=orthogonalEdgeStyle;rounded=0;orthogonalLoop=1;jettySize=auto;html=1;exitX=0;exitY=1;exitDx=10;exitDy=0;exitPerimeter=0;entryX=0.75;entryY=0;entryDx=0;entryDy=0;" parent="1" source="zJKt9iD3TO157ecE6hQ--7" target="y3dfUGJKQjPofjh_kF6Q-38" edge="1">
          <mxGeometry relative="1" as="geometry" />
        </mxCell>
        <mxCell id="zJKt9iD3TO157ecE6hQ--7" value="Интерфейс" style="shape=module;align=left;spacingLeft=20;align=center;verticalAlign=top;whiteSpace=wrap;html=1;shadow=0;comic=0;strokeColor=default;strokeWidth=1;fontFamily=Helvetica;fontSize=12;fontColor=default;fillColor=default;" parent="1" vertex="1">
          <mxGeometry x="-400" y="30" width="100" height="50" as="geometry" />
        </mxCell>
        <mxCell id="zJKt9iD3TO157ecE6hQ--12" value="Пользовательские парметры" style="text;html=1;align=center;verticalAlign=middle;whiteSpace=wrap;rounded=0;" parent="1" vertex="1">
          <mxGeometry x="-473" y="100" width="60" height="30" as="geometry" />
        </mxCell>
        <mxCell id="zJKt9iD3TO157ecE6hQ--18" value="Результаты рабоы" style="text;html=1;align=center;verticalAlign=middle;whiteSpace=wrap;rounded=0;" parent="1" vertex="1">
          <mxGeometry x="-291" y="100" width="60" height="30" as="geometry" />
        </mxCell>
      </root>
    </mxGraphModel>
  </diagram>
</mxfile>
